G04 #@! TF.GenerationSoftware,KiCad,Pcbnew,9.0.2*
G04 #@! TF.CreationDate,2025-12-01T11:38:31+01:00*
G04 #@! TF.ProjectId,PCB,5043422e-6b69-4636-9164-5f7063625858,rev?*
G04 #@! TF.SameCoordinates,Original*
G04 #@! TF.FileFunction,Copper,L2,Inr*
G04 #@! TF.FilePolarity,Positive*
%FSLAX46Y46*%
G04 Gerber Fmt 4.6, Leading zero omitted, Abs format (unit mm)*
G04 Created by KiCad (PCBNEW 9.0.2) date 2025-12-01 11:38:31*
%MOMM*%
%LPD*%
G01*
G04 APERTURE LIST*
G04 #@! TA.AperFunction,ComponentPad*
%ADD10C,2.100000*%
G04 #@! TD*
G04 #@! TA.AperFunction,ComponentPad*
%ADD11C,0.500000*%
G04 #@! TD*
G04 #@! TA.AperFunction,ComponentPad*
%ADD12C,0.800000*%
G04 #@! TD*
G04 #@! TA.AperFunction,ComponentPad*
%ADD13O,1.600000X0.900000*%
G04 #@! TD*
G04 #@! TA.AperFunction,ViaPad*
%ADD14C,0.600000*%
G04 #@! TD*
G04 #@! TA.AperFunction,ViaPad*
%ADD15C,0.800000*%
G04 #@! TD*
G04 #@! TA.AperFunction,ViaPad*
%ADD16C,0.450000*%
G04 #@! TD*
G04 APERTURE END LIST*
D10*
X110500000Y-89500000D03*
D11*
X103300000Y-92200001D03*
X103300000Y-93600001D03*
X103300000Y-95000001D03*
X104700000Y-92200001D03*
X104700000Y-93600001D03*
X104700000Y-95000001D03*
X106100000Y-92200001D03*
X106100000Y-93600001D03*
X106100000Y-95000001D03*
D10*
X89500000Y-110500000D03*
X110500000Y-110500000D03*
D12*
X96150000Y-108625000D03*
X97250000Y-108625000D03*
X98350000Y-108625000D03*
X99450000Y-108625000D03*
X100550000Y-108625000D03*
X101650000Y-108625000D03*
X102750000Y-108625000D03*
X103850000Y-108625000D03*
X103850000Y-109975000D03*
X102750000Y-109975000D03*
X101650000Y-109975000D03*
X100550000Y-109975000D03*
X99450000Y-109975000D03*
X98350000Y-109975000D03*
X97250000Y-109975000D03*
X96150000Y-109975000D03*
D13*
X97500000Y-107150000D03*
X97500000Y-111450000D03*
X102500000Y-107150000D03*
X102500000Y-111450000D03*
D14*
X99200000Y-104400000D03*
D15*
X93700000Y-109000000D03*
D16*
X93400000Y-94600000D03*
D15*
X111537500Y-108237500D03*
X107875000Y-107150000D03*
D14*
X96600000Y-92050000D03*
D15*
X108250000Y-109600000D03*
D14*
X101100000Y-89500000D03*
X111450000Y-93450000D03*
X109400000Y-98950000D03*
D16*
X107150000Y-100300000D03*
D15*
X111550000Y-104400000D03*
D14*
X89300000Y-93900000D03*
D15*
X91100000Y-109150002D03*
D16*
X101150000Y-90200000D03*
D14*
X111500000Y-94750000D03*
X99900000Y-88800000D03*
X92500000Y-96050000D03*
X91900000Y-110867500D03*
D16*
X98350000Y-90500000D03*
D15*
X110200000Y-97550000D03*
X111550000Y-103400000D03*
D14*
X108950000Y-107187500D03*
X96100000Y-93800000D03*
X98200000Y-97100000D03*
X95400000Y-93000000D03*
D16*
X98200000Y-92400000D03*
D14*
X93500000Y-98800000D03*
D16*
X93500000Y-105300000D03*
D14*
X99950000Y-111500000D03*
X101200000Y-97300000D03*
D16*
X107150000Y-99700000D03*
X108550000Y-88500000D03*
D14*
X89450000Y-97850000D03*
X91800000Y-102950000D03*
D16*
X108450000Y-99450000D03*
D14*
X103550000Y-104900000D03*
X98900000Y-101000000D03*
X93450000Y-93000000D03*
D16*
X97500000Y-88750000D03*
X96925000Y-90550000D03*
D14*
X91422421Y-100813574D03*
X98650000Y-88600000D03*
X89400000Y-101950000D03*
X93200000Y-97800000D03*
X88850000Y-106600000D03*
X105250000Y-105700000D03*
D16*
X99350000Y-92380000D03*
D14*
X94500000Y-108000000D03*
D16*
X100050000Y-104450000D03*
X93500000Y-104500000D03*
X93000000Y-103700000D03*
X93200000Y-102800000D03*
X93700000Y-102000000D03*
D14*
X93500000Y-100900000D03*
X106100000Y-89425000D03*
D16*
X102100000Y-106000000D03*
X103350000Y-88500000D03*
X110100000Y-93100000D03*
X99350000Y-91400000D03*
X108750000Y-97400000D03*
D15*
X108000000Y-105500000D03*
D14*
X101600000Y-100100000D03*
X110550000Y-100950000D03*
D16*
X105300000Y-104500000D03*
X104100000Y-96325000D03*
X102300000Y-90950000D03*
D14*
X98170000Y-91420000D03*
D16*
X96100000Y-100800000D03*
D14*
X102300000Y-89425000D03*
X111700000Y-99050000D03*
X110550000Y-101650000D03*
D15*
X111317500Y-97700000D03*
D16*
X109150000Y-94400000D03*
X100500000Y-107200000D03*
X99400000Y-107200000D03*
X109150000Y-90950000D03*
X102200000Y-92200000D03*
X102250000Y-93075000D03*
X105750000Y-102600000D03*
D15*
X106143686Y-110361971D03*
D16*
X109950000Y-94400000D03*
X99600000Y-105200000D03*
X99600000Y-106100000D03*
G04 #@! TA.AperFunction,Conductor*
G36*
X102707499Y-88020185D02*
G01*
X102753254Y-88072989D01*
X102763198Y-88142147D01*
X102752752Y-88174005D01*
X102753711Y-88174403D01*
X102700461Y-88302959D01*
X102700458Y-88302969D01*
X102674500Y-88433466D01*
X102674500Y-88566537D01*
X102674991Y-88571525D01*
X102661970Y-88640170D01*
X102613903Y-88690879D01*
X102546052Y-88707550D01*
X102525003Y-88703946D01*
X102524887Y-88704530D01*
X102373920Y-88674500D01*
X102373918Y-88674500D01*
X102226082Y-88674500D01*
X102226080Y-88674500D01*
X102081092Y-88703340D01*
X102081082Y-88703343D01*
X101944511Y-88759912D01*
X101944498Y-88759919D01*
X101821584Y-88842048D01*
X101821580Y-88842051D01*
X101717051Y-88946580D01*
X101717048Y-88946584D01*
X101634919Y-89069498D01*
X101634912Y-89069511D01*
X101578343Y-89206082D01*
X101578340Y-89206092D01*
X101549500Y-89351079D01*
X101549500Y-89351082D01*
X101549500Y-89498918D01*
X101549500Y-89498920D01*
X101549499Y-89498920D01*
X101578340Y-89643907D01*
X101578343Y-89643917D01*
X101634912Y-89780488D01*
X101634919Y-89780501D01*
X101717048Y-89903415D01*
X101717051Y-89903419D01*
X101821580Y-90007948D01*
X101821584Y-90007951D01*
X101944498Y-90090080D01*
X101944502Y-90090082D01*
X101944505Y-90090084D01*
X102001106Y-90113529D01*
X102055508Y-90157368D01*
X102077573Y-90223662D01*
X102060294Y-90291361D01*
X102009158Y-90338972D01*
X102001109Y-90342648D01*
X101980039Y-90351376D01*
X101980020Y-90351386D01*
X101869398Y-90425301D01*
X101869390Y-90425307D01*
X101775307Y-90519390D01*
X101775301Y-90519398D01*
X101701386Y-90630020D01*
X101701376Y-90630038D01*
X101650461Y-90752959D01*
X101650458Y-90752969D01*
X101624500Y-90883466D01*
X101624500Y-90883469D01*
X101624500Y-91016531D01*
X101624500Y-91016533D01*
X101624499Y-91016533D01*
X101650458Y-91147030D01*
X101650461Y-91147040D01*
X101701376Y-91269961D01*
X101701386Y-91269979D01*
X101775301Y-91380601D01*
X101775307Y-91380609D01*
X101842755Y-91448057D01*
X101876240Y-91509380D01*
X101871256Y-91579072D01*
X101829384Y-91635005D01*
X101823967Y-91638839D01*
X101769392Y-91675305D01*
X101675307Y-91769390D01*
X101675301Y-91769398D01*
X101601386Y-91880020D01*
X101601376Y-91880038D01*
X101550461Y-92002959D01*
X101550458Y-92002969D01*
X101524500Y-92133466D01*
X101524500Y-92133469D01*
X101524500Y-92266531D01*
X101524500Y-92266533D01*
X101524499Y-92266533D01*
X101550458Y-92397030D01*
X101550461Y-92397040D01*
X101601376Y-92519961D01*
X101601382Y-92519972D01*
X101658880Y-92606025D01*
X101679757Y-92672703D01*
X101661272Y-92740083D01*
X101658883Y-92743800D01*
X101651385Y-92755022D01*
X101651376Y-92755038D01*
X101600461Y-92877959D01*
X101600458Y-92877969D01*
X101574500Y-93008466D01*
X101574500Y-93008469D01*
X101574500Y-93141531D01*
X101574500Y-93141533D01*
X101574499Y-93141533D01*
X101600458Y-93272030D01*
X101600461Y-93272040D01*
X101651376Y-93394961D01*
X101651386Y-93394979D01*
X101725301Y-93505601D01*
X101725307Y-93505609D01*
X101819390Y-93599692D01*
X101819398Y-93599698D01*
X101930020Y-93673613D01*
X101930023Y-93673614D01*
X101930031Y-93673620D01*
X101930037Y-93673622D01*
X101930038Y-93673623D01*
X102020594Y-93711132D01*
X102052964Y-93724540D01*
X102052968Y-93724540D01*
X102052969Y-93724541D01*
X102183466Y-93750500D01*
X102183469Y-93750500D01*
X102316533Y-93750500D01*
X102404325Y-93733035D01*
X102447036Y-93724540D01*
X102506082Y-93700082D01*
X102575546Y-93692614D01*
X102638026Y-93723888D01*
X102673679Y-93783977D01*
X102674883Y-93789283D01*
X102674978Y-93789595D01*
X102719669Y-93897487D01*
X103046994Y-93570164D01*
X103150000Y-93570164D01*
X103150000Y-93629838D01*
X103172836Y-93684969D01*
X103215032Y-93727165D01*
X103270163Y-93750001D01*
X103329837Y-93750001D01*
X103384968Y-93727165D01*
X103427164Y-93684969D01*
X103450000Y-93629838D01*
X103450000Y-93600000D01*
X103582842Y-93600000D01*
X103582842Y-93600001D01*
X103880329Y-93897487D01*
X103885438Y-93885155D01*
X103929279Y-93830752D01*
X103995573Y-93808687D01*
X104063273Y-93825966D01*
X104110883Y-93877104D01*
X104114559Y-93885153D01*
X104119668Y-93897488D01*
X104119669Y-93897488D01*
X104417157Y-93600001D01*
X104417157Y-93600000D01*
X104387321Y-93570164D01*
X104550000Y-93570164D01*
X104550000Y-93629838D01*
X104572836Y-93684969D01*
X104615032Y-93727165D01*
X104670163Y-93750001D01*
X104729837Y-93750001D01*
X104784968Y-93727165D01*
X104827164Y-93684969D01*
X104850000Y-93629838D01*
X104850000Y-93600000D01*
X104982842Y-93600000D01*
X104982842Y-93600001D01*
X105280329Y-93897487D01*
X105285438Y-93885155D01*
X105329279Y-93830752D01*
X105395573Y-93808687D01*
X105463273Y-93825966D01*
X105510883Y-93877104D01*
X105514559Y-93885153D01*
X105519668Y-93897488D01*
X105519669Y-93897488D01*
X105817157Y-93600001D01*
X105817157Y-93600000D01*
X105787321Y-93570164D01*
X105950000Y-93570164D01*
X105950000Y-93629838D01*
X105972836Y-93684969D01*
X106015032Y-93727165D01*
X106070163Y-93750001D01*
X106129837Y-93750001D01*
X106184968Y-93727165D01*
X106227164Y-93684969D01*
X106250000Y-93629838D01*
X106250000Y-93600000D01*
X106382842Y-93600000D01*
X106382842Y-93600001D01*
X106680329Y-93897487D01*
X106680331Y-93897487D01*
X106725018Y-93789607D01*
X106725022Y-93789592D01*
X106749999Y-93664024D01*
X106750000Y-93664021D01*
X106750000Y-93535981D01*
X106749999Y-93535977D01*
X106725022Y-93410409D01*
X106725021Y-93410403D01*
X106680329Y-93302512D01*
X106382842Y-93600000D01*
X106250000Y-93600000D01*
X106250000Y-93570164D01*
X106227164Y-93515033D01*
X106184968Y-93472837D01*
X106129837Y-93450001D01*
X106070163Y-93450001D01*
X106015032Y-93472837D01*
X105972836Y-93515033D01*
X105950000Y-93570164D01*
X105787321Y-93570164D01*
X105519669Y-93302512D01*
X105519668Y-93302512D01*
X105514560Y-93314846D01*
X105470718Y-93369249D01*
X105404423Y-93391313D01*
X105336724Y-93374033D01*
X105289114Y-93322895D01*
X105285438Y-93314845D01*
X105280329Y-93302512D01*
X104982842Y-93600000D01*
X104850000Y-93600000D01*
X104850000Y-93570164D01*
X104827164Y-93515033D01*
X104784968Y-93472837D01*
X104729837Y-93450001D01*
X104670163Y-93450001D01*
X104615032Y-93472837D01*
X104572836Y-93515033D01*
X104550000Y-93570164D01*
X104387321Y-93570164D01*
X104119669Y-93302512D01*
X104119668Y-93302512D01*
X104114560Y-93314846D01*
X104070718Y-93369249D01*
X104004423Y-93391313D01*
X103936724Y-93374033D01*
X103889114Y-93322895D01*
X103885438Y-93314845D01*
X103880329Y-93302512D01*
X103582842Y-93600000D01*
X103450000Y-93600000D01*
X103450000Y-93570164D01*
X103427164Y-93515033D01*
X103384968Y-93472837D01*
X103329837Y-93450001D01*
X103270163Y-93450001D01*
X103215032Y-93472837D01*
X103172836Y-93515033D01*
X103150000Y-93570164D01*
X103046994Y-93570164D01*
X103156201Y-93460958D01*
X103158579Y-93458580D01*
X103597487Y-93019670D01*
X103597487Y-93019669D01*
X103585152Y-93014560D01*
X103530750Y-92970718D01*
X103508686Y-92904424D01*
X103525966Y-92836725D01*
X103527198Y-92834694D01*
X103560878Y-92780330D01*
X104402511Y-92780330D01*
X104414844Y-92785439D01*
X104469248Y-92829281D01*
X104491312Y-92895575D01*
X104474032Y-92963274D01*
X104422895Y-93010884D01*
X104414845Y-93014561D01*
X104402511Y-93019669D01*
X104402511Y-93019670D01*
X104700000Y-93317158D01*
X104700001Y-93317158D01*
X104997487Y-93019670D01*
X104997487Y-93019669D01*
X104985152Y-93014560D01*
X104930750Y-92970718D01*
X104908686Y-92904424D01*
X104925966Y-92836725D01*
X104927198Y-92834694D01*
X104960878Y-92780330D01*
X105802511Y-92780330D01*
X105814844Y-92785439D01*
X105869248Y-92829281D01*
X105891312Y-92895575D01*
X105874032Y-92963274D01*
X105822895Y-93010884D01*
X105814845Y-93014561D01*
X105802511Y-93019669D01*
X105802511Y-93019670D01*
X106100000Y-93317158D01*
X106100001Y-93317158D01*
X106397487Y-93019670D01*
X106397487Y-93019669D01*
X106385152Y-93014560D01*
X106330750Y-92970718D01*
X106308686Y-92904424D01*
X106325966Y-92836725D01*
X106377104Y-92789115D01*
X106385154Y-92785439D01*
X106397486Y-92780330D01*
X106100001Y-92482843D01*
X106100000Y-92482843D01*
X105802511Y-92780330D01*
X104960878Y-92780330D01*
X104974882Y-92757726D01*
X104700001Y-92482843D01*
X104700000Y-92482843D01*
X104402511Y-92780330D01*
X103560878Y-92780330D01*
X103574882Y-92757726D01*
X103158579Y-92341422D01*
X102987321Y-92170164D01*
X103150000Y-92170164D01*
X103150000Y-92229838D01*
X103172836Y-92284969D01*
X103215032Y-92327165D01*
X103270163Y-92350001D01*
X103329837Y-92350001D01*
X103384968Y-92327165D01*
X103427164Y-92284969D01*
X103450000Y-92229838D01*
X103450000Y-92200000D01*
X103582842Y-92200000D01*
X103582842Y-92200001D01*
X103880329Y-92497487D01*
X103885438Y-92485155D01*
X103929279Y-92430752D01*
X103995573Y-92408687D01*
X104063273Y-92425966D01*
X104110883Y-92477104D01*
X104114559Y-92485153D01*
X104119668Y-92497488D01*
X104119669Y-92497488D01*
X104417157Y-92200001D01*
X104417157Y-92200000D01*
X104387321Y-92170164D01*
X104550000Y-92170164D01*
X104550000Y-92229838D01*
X104572836Y-92284969D01*
X104615032Y-92327165D01*
X104670163Y-92350001D01*
X104729837Y-92350001D01*
X104784968Y-92327165D01*
X104827164Y-92284969D01*
X104850000Y-92229838D01*
X104850000Y-92200000D01*
X104982842Y-92200000D01*
X104982842Y-92200001D01*
X105280329Y-92497487D01*
X105285438Y-92485155D01*
X105329279Y-92430752D01*
X105395573Y-92408687D01*
X105463273Y-92425966D01*
X105510883Y-92477104D01*
X105514559Y-92485153D01*
X105519668Y-92497488D01*
X105519669Y-92497488D01*
X105817157Y-92200001D01*
X105817157Y-92200000D01*
X105787321Y-92170164D01*
X105950000Y-92170164D01*
X105950000Y-92229838D01*
X105972836Y-92284969D01*
X106015032Y-92327165D01*
X106070163Y-92350001D01*
X106129837Y-92350001D01*
X106184968Y-92327165D01*
X106227164Y-92284969D01*
X106250000Y-92229838D01*
X106250000Y-92200000D01*
X106382842Y-92200000D01*
X106382842Y-92200001D01*
X106680329Y-92497487D01*
X106680331Y-92497487D01*
X106725018Y-92389607D01*
X106725022Y-92389592D01*
X106749999Y-92264024D01*
X106750000Y-92264021D01*
X106750000Y-92135981D01*
X106749999Y-92135977D01*
X106725022Y-92010409D01*
X106725021Y-92010403D01*
X106680329Y-91902512D01*
X106382842Y-92200000D01*
X106250000Y-92200000D01*
X106250000Y-92170164D01*
X106227164Y-92115033D01*
X106184968Y-92072837D01*
X106129837Y-92050001D01*
X106070163Y-92050001D01*
X106015032Y-92072837D01*
X105972836Y-92115033D01*
X105950000Y-92170164D01*
X105787321Y-92170164D01*
X105519669Y-91902512D01*
X105519668Y-91902512D01*
X105514560Y-91914846D01*
X105470718Y-91969249D01*
X105404423Y-91991313D01*
X105336724Y-91974033D01*
X105289114Y-91922895D01*
X105285438Y-91914845D01*
X105280329Y-91902512D01*
X104982842Y-92200000D01*
X104850000Y-92200000D01*
X104850000Y-92170164D01*
X104827164Y-92115033D01*
X104784968Y-92072837D01*
X104729837Y-92050001D01*
X104670163Y-92050001D01*
X104615032Y-92072837D01*
X104572836Y-92115033D01*
X104550000Y-92170164D01*
X104387321Y-92170164D01*
X104119669Y-91902512D01*
X104119668Y-91902512D01*
X104114560Y-91914846D01*
X104070718Y-91969249D01*
X104004423Y-91991313D01*
X103936724Y-91974033D01*
X103889114Y-91922895D01*
X103885438Y-91914845D01*
X103880329Y-91902512D01*
X103582842Y-92200000D01*
X103450000Y-92200000D01*
X103450000Y-92170164D01*
X103427164Y-92115033D01*
X103384968Y-92072837D01*
X103329837Y-92050001D01*
X103270163Y-92050001D01*
X103215032Y-92072837D01*
X103172836Y-92115033D01*
X103150000Y-92170164D01*
X102987321Y-92170164D01*
X102883443Y-92066286D01*
X102851945Y-92008602D01*
X102851309Y-92008796D01*
X102850381Y-92005738D01*
X102849958Y-92004963D01*
X102849544Y-92002979D01*
X102849538Y-92002959D01*
X102798623Y-91880038D01*
X102798622Y-91880037D01*
X102798620Y-91880031D01*
X102798426Y-91879741D01*
X102724698Y-91769398D01*
X102724692Y-91769390D01*
X102657243Y-91701941D01*
X102623758Y-91640618D01*
X102625256Y-91619670D01*
X103002511Y-91619670D01*
X103300000Y-91917158D01*
X103300001Y-91917158D01*
X103597487Y-91619670D01*
X104402511Y-91619670D01*
X104700000Y-91917158D01*
X104700001Y-91917158D01*
X104997487Y-91619670D01*
X105802511Y-91619670D01*
X106100000Y-91917158D01*
X106100001Y-91917158D01*
X106397487Y-91619670D01*
X106289594Y-91574979D01*
X106289590Y-91574978D01*
X106164023Y-91550001D01*
X106035976Y-91550001D01*
X105910409Y-91574978D01*
X105910401Y-91574980D01*
X105802511Y-91619670D01*
X104997487Y-91619670D01*
X104889594Y-91574979D01*
X104889590Y-91574978D01*
X104764023Y-91550001D01*
X104635976Y-91550001D01*
X104510409Y-91574978D01*
X104510401Y-91574980D01*
X104402511Y-91619670D01*
X103597487Y-91619670D01*
X103489594Y-91574979D01*
X103489590Y-91574978D01*
X103364023Y-91550001D01*
X103235976Y-91550001D01*
X103110409Y-91574978D01*
X103110401Y-91574980D01*
X103002511Y-91619670D01*
X102625256Y-91619670D01*
X102628742Y-91570926D01*
X102670614Y-91514993D01*
X102675983Y-91511192D01*
X102730606Y-91474695D01*
X102824695Y-91380606D01*
X102898620Y-91269969D01*
X102949540Y-91147036D01*
X102965957Y-91064505D01*
X102975500Y-91016533D01*
X102975500Y-90883466D01*
X102949541Y-90752969D01*
X102949540Y-90752968D01*
X102949540Y-90752964D01*
X102937750Y-90724500D01*
X102898623Y-90630038D01*
X102898622Y-90630037D01*
X102898620Y-90630031D01*
X102824695Y-90519394D01*
X102824692Y-90519390D01*
X102730609Y-90425307D01*
X102730601Y-90425301D01*
X102619979Y-90351386D01*
X102619974Y-90351383D01*
X102619969Y-90351380D01*
X102619962Y-90351377D01*
X102598892Y-90342649D01*
X102544489Y-90298807D01*
X102522426Y-90232512D01*
X102539707Y-90164813D01*
X102590845Y-90117204D01*
X102598871Y-90113538D01*
X102655495Y-90090084D01*
X102778416Y-90007951D01*
X102882951Y-89903416D01*
X102965084Y-89780495D01*
X103021658Y-89643913D01*
X103050500Y-89498920D01*
X105349499Y-89498920D01*
X105378340Y-89643907D01*
X105378343Y-89643917D01*
X105434912Y-89780488D01*
X105434919Y-89780501D01*
X105517048Y-89903415D01*
X105517051Y-89903419D01*
X105621580Y-90007948D01*
X105621584Y-90007951D01*
X105744498Y-90090080D01*
X105744511Y-90090087D01*
X105881082Y-90146656D01*
X105881087Y-90146658D01*
X105881091Y-90146658D01*
X105881092Y-90146659D01*
X106026079Y-90175500D01*
X106026082Y-90175500D01*
X106173920Y-90175500D01*
X106271462Y-90156096D01*
X106318913Y-90146658D01*
X106455495Y-90090084D01*
X106578416Y-90007951D01*
X106682951Y-89903416D01*
X106765084Y-89780495D01*
X106821658Y-89643913D01*
X106850500Y-89498918D01*
X106850500Y-89351082D01*
X106850500Y-89351079D01*
X106821659Y-89206092D01*
X106821658Y-89206091D01*
X106821658Y-89206087D01*
X106809562Y-89176885D01*
X106765087Y-89069511D01*
X106765080Y-89069498D01*
X106682951Y-88946584D01*
X106682948Y-88946580D01*
X106578419Y-88842051D01*
X106578415Y-88842048D01*
X106455501Y-88759919D01*
X106455488Y-88759912D01*
X106318917Y-88703343D01*
X106318907Y-88703340D01*
X106173920Y-88674500D01*
X106173918Y-88674500D01*
X106026082Y-88674500D01*
X106026080Y-88674500D01*
X105881092Y-88703340D01*
X105881082Y-88703343D01*
X105744511Y-88759912D01*
X105744498Y-88759919D01*
X105621584Y-88842048D01*
X105621580Y-88842051D01*
X105517051Y-88946580D01*
X105517048Y-88946584D01*
X105434919Y-89069498D01*
X105434912Y-89069511D01*
X105378343Y-89206082D01*
X105378340Y-89206092D01*
X105349500Y-89351079D01*
X105349500Y-89351082D01*
X105349500Y-89498918D01*
X105349500Y-89498920D01*
X105349499Y-89498920D01*
X103050500Y-89498920D01*
X103050500Y-89498918D01*
X103050500Y-89351082D01*
X103040531Y-89300966D01*
X103040338Y-89299898D01*
X103043950Y-89266183D01*
X103046970Y-89232439D01*
X103047661Y-89231548D01*
X103047782Y-89230426D01*
X103069039Y-89204027D01*
X103089832Y-89177261D01*
X103090896Y-89176885D01*
X103091604Y-89176007D01*
X103123750Y-89165294D01*
X103155722Y-89154016D01*
X103157267Y-89154126D01*
X103157890Y-89153919D01*
X103159264Y-89154269D01*
X103186548Y-89156220D01*
X103256267Y-89170089D01*
X103283468Y-89175500D01*
X103283469Y-89175500D01*
X103416533Y-89175500D01*
X103504325Y-89158035D01*
X103547036Y-89149540D01*
X103669969Y-89098620D01*
X103780606Y-89024695D01*
X103874695Y-88930606D01*
X103948620Y-88819969D01*
X103999540Y-88697036D01*
X104025500Y-88566531D01*
X104025500Y-88433469D01*
X104025500Y-88433466D01*
X103999541Y-88302969D01*
X103999540Y-88302968D01*
X103999540Y-88302964D01*
X103948620Y-88180031D01*
X103946289Y-88174403D01*
X103948233Y-88173597D01*
X103935940Y-88114547D01*
X103960942Y-88049304D01*
X104017248Y-88007935D01*
X104059540Y-88000500D01*
X109629449Y-88000500D01*
X109696488Y-88020185D01*
X109742243Y-88072989D01*
X109752187Y-88142147D01*
X109723162Y-88205703D01*
X109702337Y-88224815D01*
X109522490Y-88355483D01*
X109522488Y-88355485D01*
X109522487Y-88355485D01*
X109355485Y-88522487D01*
X109355485Y-88522488D01*
X109355483Y-88522490D01*
X109323485Y-88566531D01*
X109216657Y-88713566D01*
X109109433Y-88924003D01*
X109036446Y-89148631D01*
X108999500Y-89381902D01*
X108999500Y-89618097D01*
X109036446Y-89851368D01*
X109109435Y-90076001D01*
X109124511Y-90105588D01*
X109137408Y-90174257D01*
X109111132Y-90238997D01*
X109054026Y-90279255D01*
X109038220Y-90283500D01*
X108952968Y-90300458D01*
X108952959Y-90300461D01*
X108830038Y-90351376D01*
X108830020Y-90351386D01*
X108719398Y-90425301D01*
X108719390Y-90425307D01*
X108625307Y-90519390D01*
X108625301Y-90519398D01*
X108551386Y-90630020D01*
X108551376Y-90630038D01*
X108500461Y-90752959D01*
X108500458Y-90752969D01*
X108474500Y-90883466D01*
X108474500Y-90883469D01*
X108474500Y-91016531D01*
X108474500Y-91016533D01*
X108474499Y-91016533D01*
X108500458Y-91147030D01*
X108500461Y-91147040D01*
X108551376Y-91269961D01*
X108551386Y-91269979D01*
X108625301Y-91380601D01*
X108625307Y-91380609D01*
X108719390Y-91474692D01*
X108719398Y-91474698D01*
X108830020Y-91548613D01*
X108830023Y-91548614D01*
X108830031Y-91548620D01*
X108830037Y-91548622D01*
X108830038Y-91548623D01*
X108943717Y-91595710D01*
X108952964Y-91599540D01*
X108952968Y-91599540D01*
X108952969Y-91599541D01*
X109083466Y-91625500D01*
X109083469Y-91625500D01*
X109216533Y-91625500D01*
X109304325Y-91608035D01*
X109347036Y-91599540D01*
X109469969Y-91548620D01*
X109580606Y-91474695D01*
X109674695Y-91380606D01*
X109748620Y-91269969D01*
X109799540Y-91147036D01*
X109815957Y-91064505D01*
X109826689Y-91010556D01*
X109827920Y-91010800D01*
X109851621Y-90952094D01*
X109908652Y-90911730D01*
X109978452Y-90908607D01*
X109987175Y-90911092D01*
X110053015Y-90932485D01*
X110148631Y-90963553D01*
X110381903Y-91000500D01*
X110381908Y-91000500D01*
X110618097Y-91000500D01*
X110851368Y-90963553D01*
X110918981Y-90941584D01*
X111075992Y-90890568D01*
X111286433Y-90783343D01*
X111477510Y-90644517D01*
X111644517Y-90477510D01*
X111775183Y-90297664D01*
X111830512Y-90255000D01*
X111900126Y-90249021D01*
X111961920Y-90281627D01*
X111996278Y-90342466D01*
X111999500Y-90370551D01*
X111999500Y-96900822D01*
X111979815Y-96967861D01*
X111927011Y-97013616D01*
X111857853Y-97023560D01*
X111806610Y-97003925D01*
X111754924Y-96969390D01*
X111720363Y-96946297D01*
X111720360Y-96946295D01*
X111720359Y-96946295D01*
X111565582Y-96882184D01*
X111565574Y-96882182D01*
X111401271Y-96849500D01*
X111401267Y-96849500D01*
X111233733Y-96849500D01*
X111233728Y-96849500D01*
X111069425Y-96882182D01*
X111069417Y-96882184D01*
X110914639Y-96946295D01*
X110775337Y-97039373D01*
X110656873Y-97157837D01*
X110563795Y-97297139D01*
X110499684Y-97451917D01*
X110499682Y-97451925D01*
X110467000Y-97616228D01*
X110467000Y-97783771D01*
X110499682Y-97948074D01*
X110499684Y-97948082D01*
X110563795Y-98102860D01*
X110656873Y-98242162D01*
X110775337Y-98360626D01*
X110914638Y-98453704D01*
X110995269Y-98487102D01*
X111049672Y-98530943D01*
X111071737Y-98597237D01*
X111054458Y-98664936D01*
X111050920Y-98670552D01*
X111034917Y-98694502D01*
X111034912Y-98694511D01*
X110978343Y-98831082D01*
X110978340Y-98831092D01*
X110949500Y-98976079D01*
X110949500Y-98976082D01*
X110949500Y-99123918D01*
X110949500Y-99123920D01*
X110949499Y-99123920D01*
X110978340Y-99268907D01*
X110978343Y-99268917D01*
X111034912Y-99405488D01*
X111034919Y-99405501D01*
X111117048Y-99528415D01*
X111117051Y-99528419D01*
X111221580Y-99632948D01*
X111221584Y-99632951D01*
X111344498Y-99715080D01*
X111344511Y-99715087D01*
X111415548Y-99744511D01*
X111481087Y-99771658D01*
X111481091Y-99771658D01*
X111481092Y-99771659D01*
X111626079Y-99800500D01*
X111626082Y-99800500D01*
X111773920Y-99800500D01*
X111851308Y-99785106D01*
X111920899Y-99791333D01*
X111976077Y-99834195D01*
X111999322Y-99900085D01*
X111999500Y-99906723D01*
X111999500Y-107322712D01*
X111979815Y-107389751D01*
X111927011Y-107435506D01*
X111857853Y-107445450D01*
X111828049Y-107437274D01*
X111797269Y-107424525D01*
X111785582Y-107419684D01*
X111785578Y-107419683D01*
X111785574Y-107419682D01*
X111621271Y-107387000D01*
X111621267Y-107387000D01*
X111453733Y-107387000D01*
X111453728Y-107387000D01*
X111289425Y-107419682D01*
X111289417Y-107419684D01*
X111134639Y-107483795D01*
X110995337Y-107576873D01*
X110876873Y-107695337D01*
X110783795Y-107834639D01*
X110719684Y-107989417D01*
X110719682Y-107989425D01*
X110687000Y-108153728D01*
X110687000Y-108321271D01*
X110719682Y-108485574D01*
X110719684Y-108485582D01*
X110783795Y-108640360D01*
X110876873Y-108779662D01*
X110916927Y-108819716D01*
X110950412Y-108881039D01*
X110945428Y-108950731D01*
X110903556Y-109006664D01*
X110838092Y-109031081D01*
X110809848Y-109029870D01*
X110618097Y-108999500D01*
X110618092Y-108999500D01*
X110381908Y-108999500D01*
X110381903Y-108999500D01*
X110148631Y-109036446D01*
X109924003Y-109109433D01*
X109713566Y-109216657D01*
X109604550Y-109295862D01*
X109522490Y-109355483D01*
X109522488Y-109355485D01*
X109522487Y-109355485D01*
X109355485Y-109522487D01*
X109355485Y-109522488D01*
X109355483Y-109522490D01*
X109322576Y-109567783D01*
X109216657Y-109713566D01*
X109109433Y-109924003D01*
X109036446Y-110148631D01*
X108999500Y-110381902D01*
X108999500Y-110618097D01*
X109036446Y-110851368D01*
X109109433Y-111075996D01*
X109173668Y-111202063D01*
X109216657Y-111286433D01*
X109355483Y-111477510D01*
X109522490Y-111644517D01*
X109702335Y-111775183D01*
X109745000Y-111830512D01*
X109750979Y-111900126D01*
X109718373Y-111961920D01*
X109657534Y-111996278D01*
X109629449Y-111999500D01*
X103728002Y-111999500D01*
X103660963Y-111979815D01*
X103615208Y-111927011D01*
X103605264Y-111857853D01*
X103613441Y-111828047D01*
X103667334Y-111697936D01*
X103667336Y-111697928D01*
X103676870Y-111650000D01*
X103074265Y-111650000D01*
X103090060Y-111634205D01*
X103129556Y-111565796D01*
X103150000Y-111489496D01*
X103150000Y-111410504D01*
X103129556Y-111334204D01*
X103090060Y-111265795D01*
X103074265Y-111250000D01*
X103676870Y-111250000D01*
X103667336Y-111202071D01*
X103667334Y-111202063D01*
X103603260Y-111047375D01*
X103533943Y-110943633D01*
X103513066Y-110876956D01*
X103531551Y-110809576D01*
X103583530Y-110762886D01*
X103652500Y-110751710D01*
X103661237Y-110753126D01*
X103771203Y-110774999D01*
X103771206Y-110775000D01*
X103928794Y-110775000D01*
X103928797Y-110774999D01*
X104083343Y-110744258D01*
X104083355Y-110744255D01*
X104228938Y-110683953D01*
X104228943Y-110683950D01*
X104257215Y-110665058D01*
X104257216Y-110665057D01*
X103817159Y-110225000D01*
X103899728Y-110225000D01*
X103991614Y-110186940D01*
X104061940Y-110116614D01*
X104100000Y-110024728D01*
X104100000Y-109974999D01*
X104132842Y-109974999D01*
X104132842Y-109975001D01*
X104540057Y-110382216D01*
X104540058Y-110382215D01*
X104558950Y-110353943D01*
X104558953Y-110353938D01*
X104590325Y-110278199D01*
X105293186Y-110278199D01*
X105293186Y-110445742D01*
X105325868Y-110610045D01*
X105325870Y-110610053D01*
X105389981Y-110764831D01*
X105483059Y-110904133D01*
X105601523Y-111022597D01*
X105681435Y-111075992D01*
X105740823Y-111115674D01*
X105895604Y-111179787D01*
X106047195Y-111209940D01*
X106059914Y-111212470D01*
X106059918Y-111212471D01*
X106059919Y-111212471D01*
X106227454Y-111212471D01*
X106227455Y-111212470D01*
X106391768Y-111179787D01*
X106546549Y-111115674D01*
X106685848Y-111022597D01*
X106804312Y-110904133D01*
X106897389Y-110764834D01*
X106961502Y-110610053D01*
X106994186Y-110445738D01*
X106994186Y-110278204D01*
X106961502Y-110113889D01*
X106897389Y-109959108D01*
X106831124Y-109859936D01*
X106804312Y-109819808D01*
X106685848Y-109701344D01*
X106546546Y-109608266D01*
X106391768Y-109544155D01*
X106391760Y-109544153D01*
X106227457Y-109511471D01*
X106227453Y-109511471D01*
X106059919Y-109511471D01*
X106059914Y-109511471D01*
X105895611Y-109544153D01*
X105895603Y-109544155D01*
X105740825Y-109608266D01*
X105601523Y-109701344D01*
X105483059Y-109819808D01*
X105389981Y-109959110D01*
X105325870Y-110113888D01*
X105325868Y-110113896D01*
X105293186Y-110278199D01*
X104590325Y-110278199D01*
X104612502Y-110224660D01*
X104619255Y-110208355D01*
X104619258Y-110208343D01*
X104649999Y-110053797D01*
X104650000Y-110053794D01*
X104650000Y-109896206D01*
X104649999Y-109896202D01*
X104619258Y-109741656D01*
X104619256Y-109741648D01*
X104558952Y-109596059D01*
X104540058Y-109567783D01*
X104132842Y-109974999D01*
X104100000Y-109974999D01*
X104100000Y-109925272D01*
X104061940Y-109833386D01*
X103991614Y-109763060D01*
X103899728Y-109725000D01*
X103817156Y-109725000D01*
X104242156Y-109299999D01*
X103817157Y-108875000D01*
X103899728Y-108875000D01*
X103991614Y-108836940D01*
X104061940Y-108766614D01*
X104100000Y-108674728D01*
X104100000Y-108624999D01*
X104132842Y-108624999D01*
X104132842Y-108625001D01*
X104540057Y-109032216D01*
X104540058Y-109032215D01*
X104558950Y-109003943D01*
X104558953Y-109003938D01*
X104619255Y-108858355D01*
X104619258Y-108858343D01*
X104649999Y-108703797D01*
X104650000Y-108703794D01*
X104650000Y-108546206D01*
X104649999Y-108546202D01*
X104619258Y-108391656D01*
X104619256Y-108391648D01*
X104558952Y-108246059D01*
X104540058Y-108217783D01*
X104132842Y-108624999D01*
X104100000Y-108624999D01*
X104100000Y-108575272D01*
X104061940Y-108483386D01*
X103991614Y-108413060D01*
X103899728Y-108375000D01*
X103817156Y-108375000D01*
X104257215Y-107934941D01*
X104257215Y-107934940D01*
X104228940Y-107916048D01*
X104083351Y-107855743D01*
X104083343Y-107855741D01*
X103928797Y-107825000D01*
X103771208Y-107825000D01*
X103661236Y-107846874D01*
X103591645Y-107840645D01*
X103536468Y-107797782D01*
X103513224Y-107731892D01*
X103529292Y-107663895D01*
X103533944Y-107656365D01*
X103603260Y-107552625D01*
X103667334Y-107397936D01*
X103667336Y-107397928D01*
X103676870Y-107350000D01*
X103074265Y-107350000D01*
X103090060Y-107334205D01*
X103129556Y-107265796D01*
X103150000Y-107189496D01*
X103150000Y-107110504D01*
X103138137Y-107066228D01*
X107024500Y-107066228D01*
X107024500Y-107233771D01*
X107057182Y-107398074D01*
X107057184Y-107398082D01*
X107121295Y-107552860D01*
X107214373Y-107692162D01*
X107332837Y-107810626D01*
X107389204Y-107848289D01*
X107472137Y-107903703D01*
X107626918Y-107967816D01*
X107735515Y-107989417D01*
X107791228Y-108000499D01*
X107791232Y-108000500D01*
X107791233Y-108000500D01*
X107958768Y-108000500D01*
X107958769Y-108000499D01*
X108123082Y-107967816D01*
X108277863Y-107903703D01*
X108417162Y-107810626D01*
X108535626Y-107692162D01*
X108628703Y-107552863D01*
X108692816Y-107398082D01*
X108725500Y-107233767D01*
X108725500Y-107066233D01*
X108692816Y-106901918D01*
X108637921Y-106769390D01*
X108628704Y-106747139D01*
X108535626Y-106607837D01*
X108417165Y-106489376D01*
X108417161Y-106489373D01*
X108386849Y-106469119D01*
X108342044Y-106415507D01*
X108333337Y-106346182D01*
X108363492Y-106283154D01*
X108398484Y-106258447D01*
X108397485Y-106256578D01*
X108402857Y-106253705D01*
X108402863Y-106253703D01*
X108542162Y-106160626D01*
X108660626Y-106042162D01*
X108753703Y-105902863D01*
X108817816Y-105748082D01*
X108850500Y-105583767D01*
X108850500Y-105416233D01*
X108817816Y-105251918D01*
X108754317Y-105098620D01*
X108753704Y-105097139D01*
X108733238Y-105066510D01*
X108705297Y-105024692D01*
X108660626Y-104957837D01*
X108542162Y-104839373D01*
X108402860Y-104746295D01*
X108248082Y-104682184D01*
X108248074Y-104682182D01*
X108083771Y-104649500D01*
X108083767Y-104649500D01*
X107916233Y-104649500D01*
X107916228Y-104649500D01*
X107751925Y-104682182D01*
X107751917Y-104682184D01*
X107597139Y-104746295D01*
X107457837Y-104839373D01*
X107339373Y-104957837D01*
X107246295Y-105097139D01*
X107182184Y-105251917D01*
X107182182Y-105251925D01*
X107149500Y-105416228D01*
X107149500Y-105583771D01*
X107182182Y-105748074D01*
X107182184Y-105748082D01*
X107246295Y-105902860D01*
X107339373Y-106042162D01*
X107457834Y-106160623D01*
X107457842Y-106160629D01*
X107488149Y-106180880D01*
X107532955Y-106234492D01*
X107541662Y-106303817D01*
X107511508Y-106366844D01*
X107476575Y-106391664D01*
X107477515Y-106393422D01*
X107472139Y-106396295D01*
X107332837Y-106489373D01*
X107214373Y-106607837D01*
X107121295Y-106747139D01*
X107057184Y-106901917D01*
X107057182Y-106901925D01*
X107024500Y-107066228D01*
X103138137Y-107066228D01*
X103129556Y-107034204D01*
X103090060Y-106965795D01*
X103074265Y-106950000D01*
X103676870Y-106950000D01*
X103667336Y-106902071D01*
X103667334Y-106902063D01*
X103603259Y-106747372D01*
X103603259Y-106747371D01*
X103510241Y-106608160D01*
X103510235Y-106608152D01*
X103391847Y-106489764D01*
X103391839Y-106489758D01*
X103252628Y-106396740D01*
X103097936Y-106332665D01*
X103097928Y-106332663D01*
X102933721Y-106300000D01*
X102880154Y-106300000D01*
X102813115Y-106280315D01*
X102767360Y-106227511D01*
X102757416Y-106158353D01*
X102758537Y-106151808D01*
X102775500Y-106066533D01*
X102775500Y-105933466D01*
X102749541Y-105802969D01*
X102749540Y-105802968D01*
X102749540Y-105802964D01*
X102698620Y-105680031D01*
X102680033Y-105652214D01*
X102624698Y-105569398D01*
X102624692Y-105569390D01*
X102530609Y-105475307D01*
X102530601Y-105475301D01*
X102419979Y-105401386D01*
X102419972Y-105401382D01*
X102419969Y-105401380D01*
X102419965Y-105401378D01*
X102419961Y-105401376D01*
X102297040Y-105350461D01*
X102297030Y-105350458D01*
X102166533Y-105324500D01*
X102166531Y-105324500D01*
X102033469Y-105324500D01*
X102033467Y-105324500D01*
X101902969Y-105350458D01*
X101902959Y-105350461D01*
X101780038Y-105401376D01*
X101780020Y-105401386D01*
X101669398Y-105475301D01*
X101669390Y-105475307D01*
X101575307Y-105569390D01*
X101575301Y-105569398D01*
X101501386Y-105680020D01*
X101501376Y-105680038D01*
X101450461Y-105802959D01*
X101450458Y-105802969D01*
X101424500Y-105933466D01*
X101424500Y-105933469D01*
X101424500Y-106066531D01*
X101424500Y-106066533D01*
X101424499Y-106066533D01*
X101450458Y-106197030D01*
X101450461Y-106197040D01*
X101501376Y-106319961D01*
X101501383Y-106319974D01*
X101555620Y-106401145D01*
X101576498Y-106467823D01*
X101558013Y-106535203D01*
X101540200Y-106557716D01*
X101489765Y-106608151D01*
X101489758Y-106608160D01*
X101396740Y-106747371D01*
X101396740Y-106747372D01*
X101334766Y-106896990D01*
X101290925Y-106951393D01*
X101224630Y-106973458D01*
X101156931Y-106956178D01*
X101109321Y-106905041D01*
X101105651Y-106897005D01*
X101098620Y-106880031D01*
X101092214Y-106870444D01*
X101024698Y-106769398D01*
X101024692Y-106769390D01*
X100930609Y-106675307D01*
X100930601Y-106675301D01*
X100819979Y-106601386D01*
X100819972Y-106601382D01*
X100819969Y-106601380D01*
X100819965Y-106601378D01*
X100819961Y-106601376D01*
X100697040Y-106550461D01*
X100697030Y-106550458D01*
X100566533Y-106524500D01*
X100566531Y-106524500D01*
X100433469Y-106524500D01*
X100433467Y-106524500D01*
X100357877Y-106539536D01*
X100288285Y-106533309D01*
X100233108Y-106490446D01*
X100209863Y-106424556D01*
X100219123Y-106370468D01*
X100249540Y-106297036D01*
X100275500Y-106166531D01*
X100275500Y-106033469D01*
X100275500Y-106033466D01*
X100249541Y-105902969D01*
X100249540Y-105902968D01*
X100249540Y-105902964D01*
X100198620Y-105780031D01*
X100157766Y-105718888D01*
X100136889Y-105652214D01*
X100155373Y-105584834D01*
X100157749Y-105581136D01*
X100198620Y-105519969D01*
X100249540Y-105397036D01*
X100275500Y-105266531D01*
X100275500Y-105170604D01*
X100295185Y-105103565D01*
X100347989Y-105057810D01*
X100352023Y-105056052D01*
X100369969Y-105048620D01*
X100480606Y-104974695D01*
X100574695Y-104880606D01*
X100648620Y-104769969D01*
X100699540Y-104647036D01*
X100715554Y-104566533D01*
X104624499Y-104566533D01*
X104650458Y-104697030D01*
X104650461Y-104697040D01*
X104701376Y-104819961D01*
X104701386Y-104819979D01*
X104775301Y-104930601D01*
X104775307Y-104930609D01*
X104869390Y-105024692D01*
X104869398Y-105024698D01*
X104980020Y-105098613D01*
X104980023Y-105098614D01*
X104980031Y-105098620D01*
X104980037Y-105098622D01*
X104980038Y-105098623D01*
X105064165Y-105133469D01*
X105102964Y-105149540D01*
X105102968Y-105149540D01*
X105102969Y-105149541D01*
X105233466Y-105175500D01*
X105233469Y-105175500D01*
X105366533Y-105175500D01*
X105454325Y-105158035D01*
X105497036Y-105149540D01*
X105619969Y-105098620D01*
X105730606Y-105024695D01*
X105824695Y-104930606D01*
X105898620Y-104819969D01*
X105949540Y-104697036D01*
X105959487Y-104647030D01*
X105975500Y-104566533D01*
X105975500Y-104433466D01*
X105949541Y-104302969D01*
X105949540Y-104302968D01*
X105949540Y-104302964D01*
X105928830Y-104252964D01*
X105898623Y-104180038D01*
X105898622Y-104180037D01*
X105898620Y-104180031D01*
X105865597Y-104130609D01*
X105824698Y-104069398D01*
X105824692Y-104069390D01*
X105730609Y-103975307D01*
X105730601Y-103975301D01*
X105619979Y-103901386D01*
X105619972Y-103901382D01*
X105619969Y-103901380D01*
X105619965Y-103901378D01*
X105619961Y-103901376D01*
X105497040Y-103850461D01*
X105497030Y-103850458D01*
X105366533Y-103824500D01*
X105366531Y-103824500D01*
X105233469Y-103824500D01*
X105233467Y-103824500D01*
X105102969Y-103850458D01*
X105102959Y-103850461D01*
X104980038Y-103901376D01*
X104980020Y-103901386D01*
X104869398Y-103975301D01*
X104869390Y-103975307D01*
X104775307Y-104069390D01*
X104775301Y-104069398D01*
X104701386Y-104180020D01*
X104701376Y-104180038D01*
X104650461Y-104302959D01*
X104650458Y-104302969D01*
X104624500Y-104433466D01*
X104624500Y-104433469D01*
X104624500Y-104566531D01*
X104624500Y-104566533D01*
X104624499Y-104566533D01*
X100715554Y-104566533D01*
X100725500Y-104516531D01*
X100725500Y-104383469D01*
X100725500Y-104383466D01*
X100699541Y-104252969D01*
X100699540Y-104252968D01*
X100699540Y-104252964D01*
X100687831Y-104224695D01*
X100648623Y-104130038D01*
X100648622Y-104130037D01*
X100648620Y-104130031D01*
X100608106Y-104069398D01*
X100574698Y-104019398D01*
X100574692Y-104019390D01*
X100480609Y-103925307D01*
X100480601Y-103925301D01*
X100369979Y-103851386D01*
X100369972Y-103851382D01*
X100369969Y-103851380D01*
X100369965Y-103851378D01*
X100369961Y-103851376D01*
X100247040Y-103800461D01*
X100247030Y-103800458D01*
X100116533Y-103774500D01*
X100116531Y-103774500D01*
X99983469Y-103774500D01*
X99983467Y-103774500D01*
X99852969Y-103800458D01*
X99852959Y-103800461D01*
X99791120Y-103826076D01*
X99721651Y-103833545D01*
X99674777Y-103814617D01*
X99555501Y-103734919D01*
X99555488Y-103734912D01*
X99418917Y-103678343D01*
X99418907Y-103678340D01*
X99273920Y-103649500D01*
X99273918Y-103649500D01*
X99126082Y-103649500D01*
X99126080Y-103649500D01*
X98981092Y-103678340D01*
X98981082Y-103678343D01*
X98844511Y-103734912D01*
X98844498Y-103734919D01*
X98721584Y-103817048D01*
X98721580Y-103817051D01*
X98617051Y-103921580D01*
X98617048Y-103921584D01*
X98534919Y-104044498D01*
X98534912Y-104044511D01*
X98478343Y-104181082D01*
X98478340Y-104181092D01*
X98449500Y-104326079D01*
X98449500Y-104326082D01*
X98449500Y-104473918D01*
X98449500Y-104473920D01*
X98449499Y-104473920D01*
X98478340Y-104618907D01*
X98478343Y-104618917D01*
X98534912Y-104755488D01*
X98534919Y-104755501D01*
X98617048Y-104878415D01*
X98617051Y-104878419D01*
X98721580Y-104982948D01*
X98721584Y-104982951D01*
X98844505Y-105065084D01*
X98847948Y-105066510D01*
X98849477Y-105067742D01*
X98849879Y-105067957D01*
X98849838Y-105068033D01*
X98902354Y-105110349D01*
X98924421Y-105176642D01*
X98924500Y-105181073D01*
X98924500Y-105266531D01*
X98924500Y-105266533D01*
X98924499Y-105266533D01*
X98950458Y-105397030D01*
X98950461Y-105397040D01*
X99001376Y-105519961D01*
X99001382Y-105519972D01*
X99042233Y-105581110D01*
X99063110Y-105647787D01*
X99044625Y-105715167D01*
X99042233Y-105718890D01*
X99001382Y-105780027D01*
X99001376Y-105780038D01*
X98950461Y-105902959D01*
X98950458Y-105902969D01*
X98924500Y-106033466D01*
X98924500Y-106033469D01*
X98924500Y-106166531D01*
X98924500Y-106166533D01*
X98924499Y-106166533D01*
X98950458Y-106297030D01*
X98950461Y-106297040D01*
X99001376Y-106419961D01*
X99001382Y-106419972D01*
X99040566Y-106478616D01*
X99061443Y-106545294D01*
X99042958Y-106612674D01*
X99006355Y-106650607D01*
X98969396Y-106675302D01*
X98969390Y-106675307D01*
X98875307Y-106769390D01*
X98875302Y-106769396D01*
X98841881Y-106819414D01*
X98788268Y-106864218D01*
X98718943Y-106872925D01*
X98655916Y-106842770D01*
X98624218Y-106797973D01*
X98603258Y-106747371D01*
X98510241Y-106608160D01*
X98510235Y-106608152D01*
X98391847Y-106489764D01*
X98391839Y-106489758D01*
X98252628Y-106396740D01*
X98097936Y-106332665D01*
X98097928Y-106332663D01*
X97933721Y-106300000D01*
X97700000Y-106300000D01*
X97700000Y-106850000D01*
X97300000Y-106850000D01*
X97300000Y-106300000D01*
X97066279Y-106300000D01*
X96902071Y-106332663D01*
X96902063Y-106332665D01*
X96747372Y-106396740D01*
X96747371Y-106396740D01*
X96608160Y-106489758D01*
X96608152Y-106489764D01*
X96489764Y-106608152D01*
X96489758Y-106608160D01*
X96396740Y-106747371D01*
X96396740Y-106747372D01*
X96332665Y-106902063D01*
X96332663Y-106902071D01*
X96323130Y-106950000D01*
X96925735Y-106950000D01*
X96909940Y-106965795D01*
X96870444Y-107034204D01*
X96850000Y-107110504D01*
X96850000Y-107189496D01*
X96870444Y-107265796D01*
X96909940Y-107334205D01*
X96925735Y-107350000D01*
X96323130Y-107350000D01*
X96332663Y-107397928D01*
X96332665Y-107397936D01*
X96396739Y-107552624D01*
X96466056Y-107656366D01*
X96486933Y-107723044D01*
X96468448Y-107790424D01*
X96416469Y-107837113D01*
X96347499Y-107848289D01*
X96338763Y-107846874D01*
X96228792Y-107825000D01*
X96071202Y-107825000D01*
X95916656Y-107855741D01*
X95916648Y-107855743D01*
X95771059Y-107916048D01*
X95742782Y-107934941D01*
X96182841Y-108375000D01*
X96100272Y-108375000D01*
X96008386Y-108413060D01*
X95938060Y-108483386D01*
X95900000Y-108575272D01*
X95900000Y-108674728D01*
X95938060Y-108766614D01*
X96008386Y-108836940D01*
X96100272Y-108875000D01*
X96182842Y-108875000D01*
X95757842Y-109300000D01*
X96182842Y-109725000D01*
X96100272Y-109725000D01*
X96008386Y-109763060D01*
X95938060Y-109833386D01*
X95900000Y-109925272D01*
X95900000Y-110024728D01*
X95938060Y-110116614D01*
X96008386Y-110186940D01*
X96100272Y-110225000D01*
X96182840Y-110225000D01*
X95742782Y-110665057D01*
X95771059Y-110683952D01*
X95916648Y-110744256D01*
X95916656Y-110744258D01*
X96071202Y-110774999D01*
X96071206Y-110775000D01*
X96228794Y-110775000D01*
X96228794Y-110774999D01*
X96338761Y-110753126D01*
X96408353Y-110759353D01*
X96463530Y-110802216D01*
X96486775Y-110868106D01*
X96470707Y-110936103D01*
X96466056Y-110943633D01*
X96396739Y-111047375D01*
X96332665Y-111202063D01*
X96332663Y-111202071D01*
X96323130Y-111250000D01*
X96925735Y-111250000D01*
X96909940Y-111265795D01*
X96870444Y-111334204D01*
X96850000Y-111410504D01*
X96850000Y-111489496D01*
X96870444Y-111565796D01*
X96909940Y-111634205D01*
X96925735Y-111650000D01*
X96323130Y-111650000D01*
X96332663Y-111697928D01*
X96332665Y-111697936D01*
X96386559Y-111828047D01*
X96394028Y-111897517D01*
X96362753Y-111959996D01*
X96302664Y-111995648D01*
X96271998Y-111999500D01*
X90370551Y-111999500D01*
X90303512Y-111979815D01*
X90257757Y-111927011D01*
X90247813Y-111857853D01*
X90276838Y-111794297D01*
X90297662Y-111775184D01*
X90477510Y-111644517D01*
X90644517Y-111477510D01*
X90783343Y-111286433D01*
X90890568Y-111075992D01*
X90963553Y-110851368D01*
X90971338Y-110802216D01*
X91000500Y-110618097D01*
X91000500Y-110381902D01*
X90963553Y-110148631D01*
X90923294Y-110024728D01*
X90890568Y-109924008D01*
X90890566Y-109924005D01*
X90890566Y-109924003D01*
X90876401Y-109896202D01*
X95350000Y-109896202D01*
X95350000Y-110053797D01*
X95380741Y-110208343D01*
X95380743Y-110208351D01*
X95441048Y-110353940D01*
X95459941Y-110382215D01*
X95867157Y-109975000D01*
X95867157Y-109974999D01*
X95459941Y-109567782D01*
X95441048Y-109596059D01*
X95380743Y-109741648D01*
X95380741Y-109741656D01*
X95350000Y-109896202D01*
X90876401Y-109896202D01*
X90799358Y-109744999D01*
X90783343Y-109713567D01*
X90644517Y-109522490D01*
X90477510Y-109355483D01*
X90286433Y-109216657D01*
X90189294Y-109167162D01*
X90075996Y-109109433D01*
X89851368Y-109036446D01*
X89827169Y-109032614D01*
X89618097Y-108999500D01*
X89618092Y-108999500D01*
X89381908Y-108999500D01*
X89381903Y-108999500D01*
X89148631Y-109036446D01*
X88924003Y-109109433D01*
X88713566Y-109216657D01*
X88604550Y-109295862D01*
X88522490Y-109355483D01*
X88522488Y-109355485D01*
X88522487Y-109355485D01*
X88355485Y-109522487D01*
X88355485Y-109522488D01*
X88355483Y-109522490D01*
X88277773Y-109629448D01*
X88224818Y-109702334D01*
X88169488Y-109744999D01*
X88099874Y-109750978D01*
X88038079Y-109718372D01*
X88003722Y-109657533D01*
X88000500Y-109629448D01*
X88000500Y-108916228D01*
X92849500Y-108916228D01*
X92849500Y-109083771D01*
X92882182Y-109248074D01*
X92882184Y-109248082D01*
X92946295Y-109402860D01*
X93039373Y-109542162D01*
X93157837Y-109660626D01*
X93218778Y-109701345D01*
X93297137Y-109753703D01*
X93297138Y-109753703D01*
X93297139Y-109753704D01*
X93332201Y-109768227D01*
X93451918Y-109817816D01*
X93616228Y-109850499D01*
X93616232Y-109850500D01*
X93616233Y-109850500D01*
X93783768Y-109850500D01*
X93783769Y-109850499D01*
X93948082Y-109817816D01*
X94102863Y-109753703D01*
X94242162Y-109660626D01*
X94360626Y-109542162D01*
X94453703Y-109402863D01*
X94517816Y-109248082D01*
X94550500Y-109083767D01*
X94550500Y-108916233D01*
X94517816Y-108751918D01*
X94453703Y-108597137D01*
X94419669Y-108546202D01*
X95350000Y-108546202D01*
X95350000Y-108703797D01*
X95380741Y-108858343D01*
X95380743Y-108858351D01*
X95441048Y-109003940D01*
X95459941Y-109032215D01*
X95867157Y-108625000D01*
X95867157Y-108624999D01*
X95459941Y-108217782D01*
X95441048Y-108246059D01*
X95380743Y-108391648D01*
X95380741Y-108391656D01*
X95350000Y-108546202D01*
X94419669Y-108546202D01*
X94377697Y-108483386D01*
X94360626Y-108457837D01*
X94242162Y-108339373D01*
X94102860Y-108246295D01*
X93948082Y-108182184D01*
X93948074Y-108182182D01*
X93783771Y-108149500D01*
X93783767Y-108149500D01*
X93616233Y-108149500D01*
X93616228Y-108149500D01*
X93451925Y-108182182D01*
X93451917Y-108182184D01*
X93297139Y-108246295D01*
X93157837Y-108339373D01*
X93039373Y-108457837D01*
X92946295Y-108597139D01*
X92882184Y-108751917D01*
X92882182Y-108751925D01*
X92849500Y-108916228D01*
X88000500Y-108916228D01*
X88000500Y-103766533D01*
X92324499Y-103766533D01*
X92350458Y-103897030D01*
X92350461Y-103897040D01*
X92401376Y-104019961D01*
X92401386Y-104019979D01*
X92475301Y-104130601D01*
X92475307Y-104130609D01*
X92569390Y-104224692D01*
X92569398Y-104224698D01*
X92680020Y-104298613D01*
X92680024Y-104298615D01*
X92680031Y-104298620D01*
X92747953Y-104326754D01*
X92802355Y-104370593D01*
X92824421Y-104436887D01*
X92824500Y-104441314D01*
X92824500Y-104566531D01*
X92824500Y-104566533D01*
X92824499Y-104566533D01*
X92850458Y-104697030D01*
X92850461Y-104697040D01*
X92901376Y-104819961D01*
X92901386Y-104819979D01*
X92975301Y-104930601D01*
X92975307Y-104930609D01*
X93069390Y-105024692D01*
X93069398Y-105024698D01*
X93180020Y-105098613D01*
X93180023Y-105098614D01*
X93180031Y-105098620D01*
X93180037Y-105098622D01*
X93180038Y-105098623D01*
X93264165Y-105133469D01*
X93302964Y-105149540D01*
X93302968Y-105149540D01*
X93302969Y-105149541D01*
X93433466Y-105175500D01*
X93433469Y-105175500D01*
X93566533Y-105175500D01*
X93654325Y-105158035D01*
X93697036Y-105149540D01*
X93819969Y-105098620D01*
X93930606Y-105024695D01*
X94024695Y-104930606D01*
X94098620Y-104819969D01*
X94149540Y-104697036D01*
X94159487Y-104647030D01*
X94175500Y-104566533D01*
X94175500Y-104433466D01*
X94149541Y-104302969D01*
X94149540Y-104302968D01*
X94149540Y-104302964D01*
X94128830Y-104252964D01*
X94098623Y-104180038D01*
X94098622Y-104180037D01*
X94098620Y-104180031D01*
X94065597Y-104130609D01*
X94024698Y-104069398D01*
X94024692Y-104069390D01*
X93930609Y-103975307D01*
X93930601Y-103975301D01*
X93819979Y-103901386D01*
X93819965Y-103901378D01*
X93752047Y-103873246D01*
X93697644Y-103829405D01*
X93675579Y-103763111D01*
X93675500Y-103758685D01*
X93675500Y-103633466D01*
X93649541Y-103502969D01*
X93649540Y-103502968D01*
X93649540Y-103502964D01*
X93623486Y-103440065D01*
X93616018Y-103370597D01*
X93647293Y-103308118D01*
X93650340Y-103304960D01*
X93724695Y-103230606D01*
X93798620Y-103119969D01*
X93849540Y-102997036D01*
X93875500Y-102866531D01*
X93875500Y-102741314D01*
X93895185Y-102674275D01*
X93904120Y-102666533D01*
X105074499Y-102666533D01*
X105100458Y-102797030D01*
X105100461Y-102797040D01*
X105151376Y-102919961D01*
X105151386Y-102919979D01*
X105225301Y-103030601D01*
X105225307Y-103030609D01*
X105319390Y-103124692D01*
X105319398Y-103124698D01*
X105430020Y-103198613D01*
X105430023Y-103198614D01*
X105430031Y-103198620D01*
X105552964Y-103249540D01*
X105552968Y-103249540D01*
X105552969Y-103249541D01*
X105683466Y-103275500D01*
X105683469Y-103275500D01*
X105816533Y-103275500D01*
X105904325Y-103258035D01*
X105947036Y-103249540D01*
X106069969Y-103198620D01*
X106180606Y-103124695D01*
X106274695Y-103030606D01*
X106348620Y-102919969D01*
X106399540Y-102797036D01*
X106425500Y-102666531D01*
X106425500Y-102533469D01*
X106425500Y-102533466D01*
X106399541Y-102402969D01*
X106399540Y-102402968D01*
X106399540Y-102402964D01*
X106348620Y-102280031D01*
X106345462Y-102275305D01*
X106274698Y-102169398D01*
X106274692Y-102169390D01*
X106180609Y-102075307D01*
X106180601Y-102075301D01*
X106069979Y-102001386D01*
X106069972Y-102001382D01*
X106069969Y-102001380D01*
X106069965Y-102001378D01*
X106069961Y-102001376D01*
X105947040Y-101950461D01*
X105947030Y-101950458D01*
X105816533Y-101924500D01*
X105816531Y-101924500D01*
X105683469Y-101924500D01*
X105683467Y-101924500D01*
X105552969Y-101950458D01*
X105552959Y-101950461D01*
X105430038Y-102001376D01*
X105430020Y-102001386D01*
X105319398Y-102075301D01*
X105319390Y-102075307D01*
X105225307Y-102169390D01*
X105225301Y-102169398D01*
X105151386Y-102280020D01*
X105151376Y-102280038D01*
X105100461Y-102402959D01*
X105100458Y-102402969D01*
X105074500Y-102533466D01*
X105074500Y-102533469D01*
X105074500Y-102666531D01*
X105074500Y-102666533D01*
X105074499Y-102666533D01*
X93904120Y-102666533D01*
X93947989Y-102628520D01*
X93951997Y-102626774D01*
X94019969Y-102598620D01*
X94130606Y-102524695D01*
X94130609Y-102524692D01*
X94215606Y-102439696D01*
X94224692Y-102430609D01*
X94224695Y-102430606D01*
X94298620Y-102319969D01*
X94349540Y-102197036D01*
X94363725Y-102125724D01*
X94375500Y-102066533D01*
X94375500Y-101933466D01*
X94349541Y-101802969D01*
X94349540Y-101802968D01*
X94349540Y-101802964D01*
X94298620Y-101680031D01*
X94295029Y-101674657D01*
X94224698Y-101569398D01*
X94224692Y-101569390D01*
X94135189Y-101479887D01*
X94101704Y-101418564D01*
X94106688Y-101348872D01*
X94119768Y-101323315D01*
X94120635Y-101322018D01*
X94165084Y-101255495D01*
X94221658Y-101118913D01*
X94245901Y-100997040D01*
X94250500Y-100973920D01*
X94250500Y-100866533D01*
X95424499Y-100866533D01*
X95450458Y-100997030D01*
X95450461Y-100997040D01*
X95501376Y-101119961D01*
X95501386Y-101119979D01*
X95575301Y-101230601D01*
X95575307Y-101230609D01*
X95669390Y-101324692D01*
X95669398Y-101324698D01*
X95780020Y-101398613D01*
X95780023Y-101398614D01*
X95780031Y-101398620D01*
X95780037Y-101398622D01*
X95780038Y-101398623D01*
X95902959Y-101449538D01*
X95902964Y-101449540D01*
X95902968Y-101449540D01*
X95902969Y-101449541D01*
X96033466Y-101475500D01*
X96033469Y-101475500D01*
X96166533Y-101475500D01*
X96254325Y-101458035D01*
X96297036Y-101449540D01*
X96419969Y-101398620D01*
X96530606Y-101324695D01*
X96624695Y-101230606D01*
X96698620Y-101119969D01*
X96738404Y-101023920D01*
X109799499Y-101023920D01*
X109828340Y-101168906D01*
X109828342Y-101168914D01*
X109862984Y-101252548D01*
X109870453Y-101322018D01*
X109862984Y-101347452D01*
X109828342Y-101431085D01*
X109828340Y-101431093D01*
X109799500Y-101576079D01*
X109799500Y-101576082D01*
X109799500Y-101723918D01*
X109799500Y-101723920D01*
X109799499Y-101723920D01*
X109828340Y-101868907D01*
X109828343Y-101868917D01*
X109884912Y-102005488D01*
X109884919Y-102005501D01*
X109967048Y-102128415D01*
X109967051Y-102128419D01*
X110071580Y-102232948D01*
X110071584Y-102232951D01*
X110194498Y-102315080D01*
X110194511Y-102315087D01*
X110325621Y-102369394D01*
X110331087Y-102371658D01*
X110331091Y-102371658D01*
X110331092Y-102371659D01*
X110476079Y-102400500D01*
X110476082Y-102400500D01*
X110623920Y-102400500D01*
X110721462Y-102381096D01*
X110768913Y-102371658D01*
X110874547Y-102327902D01*
X110905488Y-102315087D01*
X110905488Y-102315086D01*
X110905495Y-102315084D01*
X111028416Y-102232951D01*
X111132951Y-102128416D01*
X111215084Y-102005495D01*
X111216789Y-102001380D01*
X111271656Y-101868917D01*
X111271658Y-101868913D01*
X111300500Y-101723918D01*
X111300500Y-101576082D01*
X111300500Y-101576079D01*
X111271659Y-101431092D01*
X111271658Y-101431091D01*
X111271658Y-101431087D01*
X111237014Y-101347450D01*
X111229546Y-101277984D01*
X111237015Y-101252548D01*
X111271658Y-101168913D01*
X111300500Y-101023918D01*
X111300500Y-100876082D01*
X111300500Y-100876079D01*
X111271659Y-100731092D01*
X111271658Y-100731091D01*
X111271658Y-100731087D01*
X111271656Y-100731082D01*
X111215087Y-100594511D01*
X111215080Y-100594498D01*
X111132951Y-100471584D01*
X111132948Y-100471580D01*
X111028419Y-100367051D01*
X111028415Y-100367048D01*
X110905501Y-100284919D01*
X110905488Y-100284912D01*
X110768917Y-100228343D01*
X110768907Y-100228340D01*
X110623920Y-100199500D01*
X110623918Y-100199500D01*
X110476082Y-100199500D01*
X110476080Y-100199500D01*
X110331092Y-100228340D01*
X110331082Y-100228343D01*
X110194511Y-100284912D01*
X110194498Y-100284919D01*
X110071584Y-100367048D01*
X110071580Y-100367051D01*
X109967051Y-100471580D01*
X109967048Y-100471584D01*
X109884919Y-100594498D01*
X109884912Y-100594511D01*
X109828343Y-100731082D01*
X109828340Y-100731092D01*
X109799500Y-100876079D01*
X109799500Y-100876082D01*
X109799500Y-101023918D01*
X109799500Y-101023920D01*
X109799499Y-101023920D01*
X96738404Y-101023920D01*
X96749540Y-100997036D01*
X96775500Y-100866531D01*
X96775500Y-100733469D01*
X96775500Y-100733466D01*
X96749541Y-100602969D01*
X96749540Y-100602968D01*
X96749540Y-100602964D01*
X96698620Y-100480031D01*
X96692973Y-100471580D01*
X96624698Y-100369398D01*
X96624692Y-100369390D01*
X96530609Y-100275307D01*
X96530601Y-100275301D01*
X96419979Y-100201386D01*
X96419972Y-100201382D01*
X96419969Y-100201380D01*
X96419965Y-100201378D01*
X96419961Y-100201376D01*
X96353676Y-100173920D01*
X100849499Y-100173920D01*
X100878340Y-100318907D01*
X100878343Y-100318917D01*
X100934912Y-100455488D01*
X100934919Y-100455501D01*
X101017048Y-100578415D01*
X101017051Y-100578419D01*
X101121580Y-100682948D01*
X101121584Y-100682951D01*
X101244498Y-100765080D01*
X101244511Y-100765087D01*
X101381082Y-100821656D01*
X101381087Y-100821658D01*
X101381091Y-100821658D01*
X101381092Y-100821659D01*
X101526079Y-100850500D01*
X101526082Y-100850500D01*
X101673920Y-100850500D01*
X101771462Y-100831096D01*
X101818913Y-100821658D01*
X101955495Y-100765084D01*
X102078416Y-100682951D01*
X102182951Y-100578416D01*
X102265084Y-100455495D01*
X102321658Y-100318913D01*
X102338366Y-100234919D01*
X102350500Y-100173920D01*
X102350500Y-100026079D01*
X102321659Y-99881092D01*
X102321658Y-99881091D01*
X102321658Y-99881087D01*
X102284481Y-99791333D01*
X102265087Y-99744511D01*
X102265080Y-99744498D01*
X102182951Y-99621584D01*
X102182948Y-99621580D01*
X102078419Y-99517051D01*
X102078415Y-99517048D01*
X101955501Y-99434919D01*
X101955488Y-99434912D01*
X101818917Y-99378343D01*
X101818907Y-99378340D01*
X101673920Y-99349500D01*
X101673918Y-99349500D01*
X101526082Y-99349500D01*
X101526080Y-99349500D01*
X101381092Y-99378340D01*
X101381082Y-99378343D01*
X101244511Y-99434912D01*
X101244498Y-99434919D01*
X101121584Y-99517048D01*
X101121580Y-99517051D01*
X101017051Y-99621580D01*
X101017048Y-99621584D01*
X100934919Y-99744498D01*
X100934912Y-99744511D01*
X100878343Y-99881082D01*
X100878340Y-99881092D01*
X100849500Y-100026079D01*
X100849500Y-100026082D01*
X100849500Y-100173918D01*
X100849500Y-100173920D01*
X100849499Y-100173920D01*
X96353676Y-100173920D01*
X96297040Y-100150461D01*
X96297030Y-100150458D01*
X96252533Y-100141607D01*
X96166533Y-100124500D01*
X96166531Y-100124500D01*
X96033469Y-100124500D01*
X96033467Y-100124500D01*
X95902969Y-100150458D01*
X95902959Y-100150461D01*
X95780038Y-100201376D01*
X95780020Y-100201386D01*
X95669398Y-100275301D01*
X95669390Y-100275307D01*
X95575307Y-100369390D01*
X95575301Y-100369398D01*
X95501386Y-100480020D01*
X95501376Y-100480038D01*
X95450461Y-100602959D01*
X95450458Y-100602969D01*
X95424500Y-100733466D01*
X95424500Y-100733469D01*
X95424500Y-100866531D01*
X95424500Y-100866533D01*
X95424499Y-100866533D01*
X94250500Y-100866533D01*
X94250500Y-100826080D01*
X94238366Y-100765084D01*
X94221658Y-100681087D01*
X94189301Y-100602969D01*
X94165087Y-100544511D01*
X94165080Y-100544498D01*
X94082951Y-100421584D01*
X94082948Y-100421580D01*
X93978419Y-100317051D01*
X93978415Y-100317048D01*
X93855501Y-100234919D01*
X93855488Y-100234912D01*
X93718917Y-100178343D01*
X93718907Y-100178340D01*
X93573920Y-100149500D01*
X93573918Y-100149500D01*
X93426082Y-100149500D01*
X93426080Y-100149500D01*
X93281092Y-100178340D01*
X93281082Y-100178343D01*
X93144511Y-100234912D01*
X93144498Y-100234919D01*
X93021584Y-100317048D01*
X93021580Y-100317051D01*
X92917051Y-100421580D01*
X92917048Y-100421584D01*
X92834919Y-100544498D01*
X92834912Y-100544511D01*
X92778343Y-100681082D01*
X92778340Y-100681092D01*
X92749500Y-100826079D01*
X92749500Y-100826080D01*
X92749500Y-100826082D01*
X92749500Y-100973918D01*
X92749500Y-100973920D01*
X92749499Y-100973920D01*
X92778340Y-101118907D01*
X92778343Y-101118917D01*
X92834912Y-101255488D01*
X92834919Y-101255501D01*
X92917048Y-101378415D01*
X92917051Y-101378419D01*
X93021580Y-101482948D01*
X93021585Y-101482952D01*
X93064685Y-101511750D01*
X93109491Y-101565362D01*
X93118200Y-101634687D01*
X93102792Y-101673876D01*
X93104253Y-101674657D01*
X93101376Y-101680038D01*
X93050461Y-101802959D01*
X93050458Y-101802969D01*
X93024500Y-101933466D01*
X93024500Y-102058685D01*
X93004815Y-102125724D01*
X92952011Y-102171479D01*
X92947953Y-102173246D01*
X92880034Y-102201378D01*
X92880020Y-102201386D01*
X92769398Y-102275301D01*
X92769390Y-102275307D01*
X92675307Y-102369390D01*
X92675301Y-102369398D01*
X92601386Y-102480020D01*
X92601376Y-102480038D01*
X92550461Y-102602959D01*
X92550458Y-102602969D01*
X92524500Y-102733466D01*
X92524500Y-102733469D01*
X92524500Y-102866531D01*
X92524500Y-102866533D01*
X92524499Y-102866533D01*
X92550458Y-102997030D01*
X92550460Y-102997036D01*
X92576512Y-103059931D01*
X92583981Y-103129401D01*
X92552706Y-103191880D01*
X92549633Y-103195065D01*
X92475303Y-103269395D01*
X92475301Y-103269398D01*
X92401386Y-103380020D01*
X92401376Y-103380038D01*
X92350461Y-103502959D01*
X92350458Y-103502969D01*
X92324500Y-103633466D01*
X92324500Y-103633469D01*
X92324500Y-103766531D01*
X92324500Y-103766533D01*
X92324499Y-103766533D01*
X88000500Y-103766533D01*
X88000500Y-97466533D01*
X108074499Y-97466533D01*
X108100458Y-97597030D01*
X108100461Y-97597040D01*
X108151376Y-97719961D01*
X108151386Y-97719979D01*
X108225301Y-97830601D01*
X108225307Y-97830609D01*
X108319390Y-97924692D01*
X108319398Y-97924698D01*
X108430020Y-97998613D01*
X108430023Y-97998614D01*
X108430031Y-97998620D01*
X108552964Y-98049540D01*
X108552968Y-98049540D01*
X108552969Y-98049541D01*
X108683466Y-98075500D01*
X108683469Y-98075500D01*
X108816533Y-98075500D01*
X108904325Y-98058035D01*
X108947036Y-98049540D01*
X109069969Y-97998620D01*
X109180606Y-97924695D01*
X109274695Y-97830606D01*
X109348620Y-97719969D01*
X109399540Y-97597036D01*
X109425500Y-97466531D01*
X109425500Y-97333469D01*
X109425500Y-97333466D01*
X109399541Y-97202969D01*
X109399540Y-97202968D01*
X109399540Y-97202964D01*
X109348620Y-97080031D01*
X109321453Y-97039373D01*
X109274698Y-96969398D01*
X109274692Y-96969390D01*
X109180609Y-96875307D01*
X109180601Y-96875301D01*
X109069979Y-96801386D01*
X109069972Y-96801382D01*
X109069969Y-96801380D01*
X109069965Y-96801378D01*
X109069961Y-96801376D01*
X108947040Y-96750461D01*
X108947030Y-96750458D01*
X108816533Y-96724500D01*
X108816531Y-96724500D01*
X108683469Y-96724500D01*
X108683467Y-96724500D01*
X108552969Y-96750458D01*
X108552959Y-96750461D01*
X108430038Y-96801376D01*
X108430020Y-96801386D01*
X108319398Y-96875301D01*
X108319390Y-96875307D01*
X108225307Y-96969390D01*
X108225301Y-96969398D01*
X108151386Y-97080020D01*
X108151376Y-97080038D01*
X108100461Y-97202959D01*
X108100458Y-97202969D01*
X108074500Y-97333466D01*
X108074500Y-97333469D01*
X108074500Y-97466531D01*
X108074500Y-97466533D01*
X108074499Y-97466533D01*
X88000500Y-97466533D01*
X88000500Y-96391533D01*
X103424499Y-96391533D01*
X103450458Y-96522030D01*
X103450461Y-96522040D01*
X103501376Y-96644961D01*
X103501386Y-96644979D01*
X103575301Y-96755601D01*
X103575307Y-96755609D01*
X103669390Y-96849692D01*
X103669398Y-96849698D01*
X103780020Y-96923613D01*
X103780023Y-96923614D01*
X103780031Y-96923620D01*
X103780037Y-96923622D01*
X103780038Y-96923623D01*
X103890540Y-96969394D01*
X103902964Y-96974540D01*
X103902968Y-96974540D01*
X103902969Y-96974541D01*
X104033466Y-97000500D01*
X104033469Y-97000500D01*
X104166533Y-97000500D01*
X104254325Y-96983035D01*
X104297036Y-96974540D01*
X104419969Y-96923620D01*
X104530606Y-96849695D01*
X104624695Y-96755606D01*
X104698620Y-96644969D01*
X104749540Y-96522036D01*
X104775500Y-96391531D01*
X104775500Y-96258469D01*
X104775500Y-96258466D01*
X104749541Y-96127969D01*
X104749540Y-96127968D01*
X104749540Y-96127964D01*
X104698620Y-96005031D01*
X104624695Y-95894394D01*
X104624692Y-95894390D01*
X104591984Y-95861682D01*
X104558499Y-95800359D01*
X104563483Y-95730667D01*
X104605355Y-95674734D01*
X104670819Y-95650317D01*
X104679665Y-95650001D01*
X104764020Y-95650001D01*
X104764023Y-95650000D01*
X104889591Y-95625023D01*
X104889606Y-95625019D01*
X104997486Y-95580332D01*
X104997486Y-95580330D01*
X105802511Y-95580330D01*
X105910402Y-95625022D01*
X105910408Y-95625023D01*
X106035976Y-95650000D01*
X106035980Y-95650001D01*
X106164020Y-95650001D01*
X106164023Y-95650000D01*
X106289591Y-95625023D01*
X106289606Y-95625019D01*
X106397486Y-95580332D01*
X106397486Y-95580330D01*
X106100001Y-95282843D01*
X106100000Y-95282843D01*
X105802511Y-95580330D01*
X104997486Y-95580330D01*
X104700001Y-95282843D01*
X104700000Y-95282843D01*
X104355645Y-95627197D01*
X104354885Y-95626437D01*
X104341243Y-95643993D01*
X104275349Y-95667225D01*
X104244544Y-95665018D01*
X104166533Y-95649500D01*
X104166531Y-95649500D01*
X104033469Y-95649500D01*
X104033467Y-95649500D01*
X103902969Y-95675458D01*
X103902959Y-95675461D01*
X103781154Y-95725914D01*
X103781151Y-95725915D01*
X103780031Y-95726380D01*
X103669394Y-95800305D01*
X103647858Y-95821840D01*
X103647851Y-95821846D01*
X103575303Y-95894395D01*
X103575301Y-95894398D01*
X103501386Y-96005020D01*
X103501376Y-96005038D01*
X103450461Y-96127959D01*
X103450458Y-96127969D01*
X103424500Y-96258466D01*
X103424500Y-96258469D01*
X103424500Y-96391531D01*
X103424500Y-96391533D01*
X103424499Y-96391533D01*
X88000500Y-96391533D01*
X88000500Y-95580330D01*
X103002511Y-95580330D01*
X103110402Y-95625022D01*
X103110408Y-95625023D01*
X103235976Y-95650000D01*
X103235980Y-95650001D01*
X103364020Y-95650001D01*
X103364023Y-95650000D01*
X103489591Y-95625023D01*
X103489598Y-95625021D01*
X103506519Y-95618012D01*
X103581330Y-95564174D01*
X103300001Y-95282843D01*
X103300000Y-95282843D01*
X103002511Y-95580330D01*
X88000500Y-95580330D01*
X88000500Y-94666533D01*
X92724499Y-94666533D01*
X92750458Y-94797030D01*
X92750461Y-94797040D01*
X92801376Y-94919961D01*
X92801386Y-94919979D01*
X92875301Y-95030601D01*
X92875307Y-95030609D01*
X92969390Y-95124692D01*
X92969398Y-95124698D01*
X93080020Y-95198613D01*
X93080023Y-95198614D01*
X93080031Y-95198620D01*
X93202964Y-95249540D01*
X93202968Y-95249540D01*
X93202969Y-95249541D01*
X93333466Y-95275500D01*
X93333469Y-95275500D01*
X93466533Y-95275500D01*
X93554325Y-95258035D01*
X93597036Y-95249540D01*
X93719969Y-95198620D01*
X93830606Y-95124695D01*
X93924695Y-95030606D01*
X93987924Y-94935977D01*
X102650000Y-94935977D01*
X102650000Y-95064024D01*
X102674977Y-95189591D01*
X102674978Y-95189595D01*
X102719669Y-95297487D01*
X103017157Y-95000001D01*
X103017157Y-95000000D01*
X102987321Y-94970164D01*
X103150000Y-94970164D01*
X103150000Y-95029838D01*
X103172836Y-95084969D01*
X103215032Y-95127165D01*
X103270163Y-95150001D01*
X103329837Y-95150001D01*
X103384968Y-95127165D01*
X103427164Y-95084969D01*
X103450000Y-95029838D01*
X103450000Y-95000000D01*
X103582842Y-95000000D01*
X103582842Y-95000001D01*
X103880329Y-95297487D01*
X103885438Y-95285155D01*
X103929279Y-95230752D01*
X103995573Y-95208687D01*
X104063273Y-95225966D01*
X104110883Y-95277104D01*
X104114559Y-95285153D01*
X104119668Y-95297488D01*
X104119669Y-95297488D01*
X104417157Y-95000001D01*
X104417157Y-95000000D01*
X104387321Y-94970164D01*
X104550000Y-94970164D01*
X104550000Y-95029838D01*
X104572836Y-95084969D01*
X104615032Y-95127165D01*
X104670163Y-95150001D01*
X104729837Y-95150001D01*
X104784968Y-95127165D01*
X104827164Y-95084969D01*
X104850000Y-95029838D01*
X104850000Y-95000000D01*
X104982842Y-95000000D01*
X104982842Y-95000001D01*
X105280329Y-95297487D01*
X105285438Y-95285155D01*
X105329279Y-95230752D01*
X105395573Y-95208687D01*
X105463273Y-95225966D01*
X105510883Y-95277104D01*
X105514559Y-95285153D01*
X105519668Y-95297488D01*
X105519669Y-95297488D01*
X105817157Y-95000001D01*
X105817157Y-95000000D01*
X105787321Y-94970164D01*
X105950000Y-94970164D01*
X105950000Y-95029838D01*
X105972836Y-95084969D01*
X106015032Y-95127165D01*
X106070163Y-95150001D01*
X106129837Y-95150001D01*
X106184968Y-95127165D01*
X106227164Y-95084969D01*
X106250000Y-95029838D01*
X106250000Y-95000000D01*
X106382842Y-95000000D01*
X106382842Y-95000001D01*
X106680329Y-95297487D01*
X106680331Y-95297487D01*
X106725018Y-95189607D01*
X106725022Y-95189592D01*
X106749999Y-95064024D01*
X106750000Y-95064021D01*
X106750000Y-94935981D01*
X106749999Y-94935977D01*
X106725022Y-94810409D01*
X106725021Y-94810403D01*
X106680329Y-94702512D01*
X106382842Y-95000000D01*
X106250000Y-95000000D01*
X106250000Y-94970164D01*
X106227164Y-94915033D01*
X106184968Y-94872837D01*
X106129837Y-94850001D01*
X106070163Y-94850001D01*
X106015032Y-94872837D01*
X105972836Y-94915033D01*
X105950000Y-94970164D01*
X105787321Y-94970164D01*
X105519669Y-94702512D01*
X105519668Y-94702512D01*
X105514560Y-94714846D01*
X105470718Y-94769249D01*
X105404423Y-94791313D01*
X105336724Y-94774033D01*
X105289114Y-94722895D01*
X105285438Y-94714845D01*
X105280329Y-94702512D01*
X104982842Y-95000000D01*
X104850000Y-95000000D01*
X104850000Y-94970164D01*
X104827164Y-94915033D01*
X104784968Y-94872837D01*
X104729837Y-94850001D01*
X104670163Y-94850001D01*
X104615032Y-94872837D01*
X104572836Y-94915033D01*
X104550000Y-94970164D01*
X104387321Y-94970164D01*
X104119669Y-94702512D01*
X104119668Y-94702512D01*
X104114560Y-94714846D01*
X104070718Y-94769249D01*
X104004423Y-94791313D01*
X103936724Y-94774033D01*
X103889114Y-94722895D01*
X103885438Y-94714845D01*
X103880329Y-94702512D01*
X103582842Y-95000000D01*
X103450000Y-95000000D01*
X103450000Y-94970164D01*
X103427164Y-94915033D01*
X103384968Y-94872837D01*
X103329837Y-94850001D01*
X103270163Y-94850001D01*
X103215032Y-94872837D01*
X103172836Y-94915033D01*
X103150000Y-94970164D01*
X102987321Y-94970164D01*
X102719669Y-94702512D01*
X102674979Y-94810402D01*
X102674977Y-94810410D01*
X102650000Y-94935977D01*
X93987924Y-94935977D01*
X93998620Y-94919969D01*
X94049540Y-94797036D01*
X94065889Y-94714846D01*
X94075500Y-94666533D01*
X94075500Y-94533466D01*
X94052863Y-94419669D01*
X103002511Y-94419669D01*
X103002511Y-94419670D01*
X103300000Y-94717158D01*
X103300001Y-94717158D01*
X103597487Y-94419670D01*
X103597487Y-94419669D01*
X103585152Y-94414560D01*
X103530750Y-94370718D01*
X103508686Y-94304424D01*
X103525966Y-94236725D01*
X103527198Y-94234694D01*
X103560878Y-94180330D01*
X104402511Y-94180330D01*
X104414844Y-94185439D01*
X104469248Y-94229281D01*
X104491312Y-94295575D01*
X104474032Y-94363274D01*
X104422895Y-94410884D01*
X104414845Y-94414561D01*
X104402511Y-94419669D01*
X104402511Y-94419670D01*
X104700000Y-94717158D01*
X104700001Y-94717158D01*
X104997487Y-94419670D01*
X104997487Y-94419669D01*
X104985152Y-94414560D01*
X104930750Y-94370718D01*
X104908686Y-94304424D01*
X104925966Y-94236725D01*
X104927198Y-94234694D01*
X104960878Y-94180330D01*
X105802511Y-94180330D01*
X105814844Y-94185439D01*
X105869248Y-94229281D01*
X105891312Y-94295575D01*
X105874032Y-94363274D01*
X105822895Y-94410884D01*
X105814845Y-94414561D01*
X105802511Y-94419669D01*
X105802511Y-94419670D01*
X106100000Y-94717158D01*
X106100001Y-94717158D01*
X106350624Y-94466533D01*
X108474499Y-94466533D01*
X108500458Y-94597030D01*
X108500461Y-94597040D01*
X108551376Y-94719961D01*
X108551386Y-94719979D01*
X108625301Y-94830601D01*
X108625307Y-94830609D01*
X108719390Y-94924692D01*
X108719398Y-94924698D01*
X108830020Y-94998613D01*
X108830023Y-94998614D01*
X108830031Y-94998620D01*
X108830037Y-94998622D01*
X108830038Y-94998623D01*
X108907241Y-95030601D01*
X108952964Y-95049540D01*
X108952968Y-95049540D01*
X108952969Y-95049541D01*
X109083466Y-95075500D01*
X109083469Y-95075500D01*
X109216533Y-95075500D01*
X109304325Y-95058035D01*
X109347036Y-95049540D01*
X109469969Y-94998620D01*
X109476272Y-94994408D01*
X109481109Y-94991177D01*
X109547786Y-94970299D01*
X109615166Y-94988783D01*
X109618891Y-94991177D01*
X109630021Y-94998613D01*
X109630031Y-94998620D01*
X109752964Y-95049540D01*
X109752968Y-95049540D01*
X109752969Y-95049541D01*
X109883466Y-95075500D01*
X109883469Y-95075500D01*
X110016533Y-95075500D01*
X110104325Y-95058035D01*
X110147036Y-95049540D01*
X110269969Y-94998620D01*
X110380606Y-94924695D01*
X110474695Y-94830606D01*
X110548620Y-94719969D01*
X110599540Y-94597036D01*
X110625500Y-94466531D01*
X110625500Y-94333469D01*
X110625500Y-94333466D01*
X110599541Y-94202969D01*
X110599540Y-94202968D01*
X110599540Y-94202964D01*
X110548620Y-94080031D01*
X110545462Y-94075305D01*
X110474698Y-93969398D01*
X110474692Y-93969390D01*
X110397298Y-93891996D01*
X110363813Y-93830673D01*
X110368797Y-93760981D01*
X110410669Y-93705048D01*
X110416089Y-93701212D01*
X110419966Y-93698620D01*
X110419969Y-93698620D01*
X110530606Y-93624695D01*
X110624695Y-93530606D01*
X110698620Y-93419969D01*
X110749540Y-93297036D01*
X110775500Y-93166531D01*
X110775500Y-93033469D01*
X110775500Y-93033466D01*
X110749541Y-92902969D01*
X110749540Y-92902968D01*
X110749540Y-92902964D01*
X110719020Y-92829281D01*
X110698623Y-92780038D01*
X110698622Y-92780037D01*
X110698620Y-92780031D01*
X110693025Y-92771658D01*
X110624698Y-92669398D01*
X110624692Y-92669390D01*
X110530609Y-92575307D01*
X110530601Y-92575301D01*
X110419979Y-92501386D01*
X110419972Y-92501382D01*
X110419969Y-92501380D01*
X110419965Y-92501378D01*
X110419961Y-92501376D01*
X110297040Y-92450461D01*
X110297030Y-92450458D01*
X110166533Y-92424500D01*
X110166531Y-92424500D01*
X110033469Y-92424500D01*
X110033467Y-92424500D01*
X109902969Y-92450458D01*
X109902959Y-92450461D01*
X109780038Y-92501376D01*
X109780020Y-92501386D01*
X109669398Y-92575301D01*
X109669390Y-92575307D01*
X109575307Y-92669390D01*
X109575301Y-92669398D01*
X109501386Y-92780020D01*
X109501376Y-92780038D01*
X109450461Y-92902959D01*
X109450458Y-92902969D01*
X109424500Y-93033466D01*
X109424500Y-93033469D01*
X109424500Y-93166531D01*
X109424500Y-93166533D01*
X109424499Y-93166533D01*
X109450458Y-93297030D01*
X109450461Y-93297040D01*
X109501376Y-93419961D01*
X109501386Y-93419979D01*
X109575301Y-93530601D01*
X109575307Y-93530609D01*
X109652701Y-93608003D01*
X109662796Y-93626491D01*
X109676875Y-93642163D01*
X109679205Y-93656542D01*
X109686186Y-93669326D01*
X109684683Y-93690337D01*
X109688054Y-93711132D01*
X109682241Y-93724487D01*
X109681202Y-93739018D01*
X109668577Y-93755881D01*
X109660171Y-93775197D01*
X109641689Y-93791798D01*
X109639330Y-93794951D01*
X109633915Y-93798783D01*
X109618895Y-93808820D01*
X109552219Y-93829701D01*
X109484838Y-93811219D01*
X109481112Y-93808825D01*
X109469975Y-93801384D01*
X109469974Y-93801383D01*
X109469969Y-93801380D01*
X109469965Y-93801378D01*
X109469961Y-93801376D01*
X109347040Y-93750461D01*
X109347030Y-93750458D01*
X109216533Y-93724500D01*
X109216531Y-93724500D01*
X109083469Y-93724500D01*
X109083467Y-93724500D01*
X108952969Y-93750458D01*
X108952959Y-93750461D01*
X108830038Y-93801376D01*
X108830020Y-93801386D01*
X108719398Y-93875301D01*
X108719390Y-93875307D01*
X108625307Y-93969390D01*
X108625301Y-93969398D01*
X108551386Y-94080020D01*
X108551376Y-94080038D01*
X108500461Y-94202959D01*
X108500458Y-94202969D01*
X108474500Y-94333466D01*
X108474500Y-94333469D01*
X108474500Y-94466531D01*
X108474500Y-94466533D01*
X108474499Y-94466533D01*
X106350624Y-94466533D01*
X106397487Y-94419670D01*
X106397487Y-94419669D01*
X106385152Y-94414560D01*
X106330750Y-94370718D01*
X106308686Y-94304424D01*
X106325966Y-94236725D01*
X106377104Y-94189115D01*
X106385154Y-94185439D01*
X106397486Y-94180330D01*
X106100001Y-93882843D01*
X106100000Y-93882843D01*
X105802511Y-94180330D01*
X104960878Y-94180330D01*
X104974882Y-94157726D01*
X104700001Y-93882843D01*
X104700000Y-93882843D01*
X104402511Y-94180330D01*
X103560878Y-94180330D01*
X103574882Y-94157726D01*
X103300001Y-93882843D01*
X103300000Y-93882843D01*
X103025115Y-94157726D01*
X103072800Y-94234694D01*
X103081259Y-94265370D01*
X103091312Y-94295575D01*
X103090483Y-94298820D01*
X103091374Y-94302050D01*
X103081902Y-94332440D01*
X103074032Y-94363274D01*
X103071581Y-94365555D01*
X103070584Y-94368755D01*
X103046185Y-94389199D01*
X103022895Y-94410884D01*
X103017208Y-94413481D01*
X103017031Y-94413630D01*
X103016826Y-94413655D01*
X103014845Y-94414561D01*
X103002511Y-94419669D01*
X94052863Y-94419669D01*
X94049541Y-94402969D01*
X94049540Y-94402968D01*
X94049540Y-94402964D01*
X94008724Y-94304424D01*
X93998623Y-94280038D01*
X93998622Y-94280037D01*
X93998620Y-94280031D01*
X93924695Y-94169394D01*
X93924692Y-94169390D01*
X93830609Y-94075307D01*
X93830601Y-94075301D01*
X93719979Y-94001386D01*
X93719972Y-94001382D01*
X93719969Y-94001380D01*
X93719965Y-94001378D01*
X93719961Y-94001376D01*
X93597040Y-93950461D01*
X93597030Y-93950458D01*
X93466533Y-93924500D01*
X93466531Y-93924500D01*
X93333469Y-93924500D01*
X93333467Y-93924500D01*
X93202969Y-93950458D01*
X93202959Y-93950461D01*
X93080038Y-94001376D01*
X93080020Y-94001386D01*
X92969398Y-94075301D01*
X92969390Y-94075307D01*
X92875307Y-94169390D01*
X92875301Y-94169398D01*
X92801386Y-94280020D01*
X92801376Y-94280038D01*
X92750461Y-94402959D01*
X92750458Y-94402969D01*
X92724500Y-94533466D01*
X92724500Y-94533469D01*
X92724500Y-94666531D01*
X92724500Y-94666533D01*
X92724499Y-94666533D01*
X88000500Y-94666533D01*
X88000500Y-91824000D01*
X88020185Y-91756961D01*
X88072989Y-91711206D01*
X88124500Y-91700000D01*
X95753322Y-91700000D01*
X95820361Y-91719685D01*
X95866116Y-91772489D01*
X95876060Y-91841647D01*
X95874939Y-91848192D01*
X95849500Y-91976079D01*
X95849500Y-91976082D01*
X95849500Y-92123918D01*
X95849500Y-92123920D01*
X95849499Y-92123920D01*
X95878340Y-92268907D01*
X95878343Y-92268917D01*
X95934912Y-92405488D01*
X95934919Y-92405501D01*
X96017048Y-92528415D01*
X96017051Y-92528419D01*
X96121580Y-92632948D01*
X96121584Y-92632951D01*
X96244498Y-92715080D01*
X96244511Y-92715087D01*
X96347452Y-92757726D01*
X96381087Y-92771658D01*
X96381091Y-92771658D01*
X96381092Y-92771659D01*
X96526079Y-92800500D01*
X96526082Y-92800500D01*
X96673920Y-92800500D01*
X96776875Y-92780020D01*
X96818913Y-92771658D01*
X96955495Y-92715084D01*
X97078416Y-92632951D01*
X97182951Y-92528416D01*
X97265084Y-92405495D01*
X97321658Y-92268913D01*
X97346971Y-92141659D01*
X97350500Y-92123920D01*
X97350500Y-91976082D01*
X97349854Y-91972836D01*
X97350009Y-91971097D01*
X97349903Y-91970017D01*
X97350107Y-91969996D01*
X97356075Y-91903244D01*
X97398933Y-91848063D01*
X97464821Y-91824812D01*
X97532820Y-91840874D01*
X97574570Y-91879741D01*
X97587049Y-91898417D01*
X97691580Y-92002948D01*
X97691584Y-92002951D01*
X97814498Y-92085080D01*
X97814511Y-92085087D01*
X97931317Y-92133469D01*
X97951087Y-92141658D01*
X97951091Y-92141658D01*
X97951092Y-92141659D01*
X98096079Y-92170500D01*
X98096082Y-92170500D01*
X98243920Y-92170500D01*
X98341462Y-92151096D01*
X98388913Y-92141658D01*
X98525495Y-92085084D01*
X98648416Y-92002951D01*
X98735353Y-91916013D01*
X98796674Y-91882530D01*
X98866366Y-91887514D01*
X98910715Y-91916016D01*
X98917594Y-91922895D01*
X98919397Y-91924698D01*
X99030020Y-91998613D01*
X99030023Y-91998614D01*
X99030031Y-91998620D01*
X99030037Y-91998622D01*
X99030038Y-91998623D01*
X99054130Y-92008602D01*
X99152964Y-92049540D01*
X99152968Y-92049540D01*
X99152969Y-92049541D01*
X99283466Y-92075500D01*
X99283469Y-92075500D01*
X99416533Y-92075500D01*
X99544718Y-92050001D01*
X99547036Y-92049540D01*
X99669969Y-91998620D01*
X99780606Y-91924695D01*
X99874695Y-91830606D01*
X99948620Y-91719969D01*
X99999540Y-91597036D01*
X100016623Y-91511156D01*
X100025500Y-91466533D01*
X100025500Y-91333466D01*
X99999541Y-91202969D01*
X99999540Y-91202968D01*
X99999540Y-91202964D01*
X99998763Y-91201087D01*
X99948623Y-91080038D01*
X99948622Y-91080037D01*
X99948620Y-91080031D01*
X99938241Y-91064498D01*
X99874698Y-90969398D01*
X99874692Y-90969390D01*
X99780609Y-90875307D01*
X99780601Y-90875301D01*
X99669979Y-90801386D01*
X99669972Y-90801382D01*
X99669969Y-90801380D01*
X99669965Y-90801378D01*
X99669961Y-90801376D01*
X99547040Y-90750461D01*
X99547030Y-90750458D01*
X99416533Y-90724500D01*
X99416531Y-90724500D01*
X99283469Y-90724500D01*
X99283467Y-90724500D01*
X99152969Y-90750458D01*
X99152959Y-90750461D01*
X99030038Y-90801376D01*
X99030020Y-90801386D01*
X98919398Y-90875301D01*
X98919390Y-90875307D01*
X98890714Y-90903984D01*
X98829391Y-90937469D01*
X98759699Y-90932485D01*
X98715352Y-90903984D01*
X98648419Y-90837051D01*
X98648415Y-90837048D01*
X98525501Y-90754919D01*
X98525488Y-90754912D01*
X98388917Y-90698343D01*
X98388907Y-90698340D01*
X98243920Y-90669500D01*
X98243918Y-90669500D01*
X98096082Y-90669500D01*
X98096080Y-90669500D01*
X97951092Y-90698340D01*
X97951082Y-90698343D01*
X97814511Y-90754912D01*
X97814498Y-90754919D01*
X97691584Y-90837048D01*
X97691580Y-90837051D01*
X97587051Y-90941580D01*
X97587048Y-90941584D01*
X97504919Y-91064498D01*
X97504912Y-91064511D01*
X97448343Y-91201082D01*
X97448340Y-91201092D01*
X97419500Y-91346079D01*
X97419500Y-91346082D01*
X97419500Y-91493918D01*
X97419500Y-91493920D01*
X97419499Y-91493920D01*
X97420147Y-91497173D01*
X97419991Y-91498911D01*
X97420097Y-91499983D01*
X97419893Y-91500003D01*
X97413920Y-91566765D01*
X97371057Y-91621942D01*
X97305168Y-91645187D01*
X97237170Y-91629119D01*
X97195429Y-91590257D01*
X97182953Y-91571586D01*
X97182948Y-91571580D01*
X97078419Y-91467051D01*
X97078415Y-91467048D01*
X96955501Y-91384919D01*
X96955488Y-91384912D01*
X96818917Y-91328343D01*
X96818907Y-91328340D01*
X96673920Y-91299500D01*
X96673918Y-91299500D01*
X96624000Y-91299500D01*
X96556961Y-91279815D01*
X96511206Y-91227011D01*
X96500000Y-91175500D01*
X96500000Y-88124500D01*
X96519685Y-88057461D01*
X96572489Y-88011706D01*
X96624000Y-88000500D01*
X102640460Y-88000500D01*
X102707499Y-88020185D01*
G37*
G04 #@! TD.AperFunction*
G04 #@! TA.AperFunction,Conductor*
G36*
X101165167Y-110674026D02*
G01*
X101168872Y-110676407D01*
X101247137Y-110728703D01*
X101247138Y-110728703D01*
X101247139Y-110728704D01*
X101275186Y-110740321D01*
X101391489Y-110788496D01*
X101445891Y-110832336D01*
X101467956Y-110898630D01*
X101450677Y-110966329D01*
X101447138Y-110971945D01*
X101396740Y-111047372D01*
X101332665Y-111202063D01*
X101332663Y-111202071D01*
X101323130Y-111250000D01*
X101925735Y-111250000D01*
X101909940Y-111265795D01*
X101870444Y-111334204D01*
X101850000Y-111410504D01*
X101850000Y-111489496D01*
X101870444Y-111565796D01*
X101909940Y-111634205D01*
X101925735Y-111650000D01*
X101323130Y-111650000D01*
X101332663Y-111697928D01*
X101332665Y-111697936D01*
X101386559Y-111828047D01*
X101394028Y-111897517D01*
X101362753Y-111959996D01*
X101302664Y-111995648D01*
X101271998Y-111999500D01*
X98728002Y-111999500D01*
X98660963Y-111979815D01*
X98615208Y-111927011D01*
X98605264Y-111857853D01*
X98613441Y-111828047D01*
X98667334Y-111697936D01*
X98667336Y-111697928D01*
X98676870Y-111650000D01*
X98074265Y-111650000D01*
X98090060Y-111634205D01*
X98129556Y-111565796D01*
X98150000Y-111489496D01*
X98150000Y-111410504D01*
X98129556Y-111334204D01*
X98090060Y-111265795D01*
X98074265Y-111250000D01*
X98676870Y-111250000D01*
X98667336Y-111202071D01*
X98667334Y-111202063D01*
X98603260Y-111047375D01*
X98552861Y-110971946D01*
X98531984Y-110905269D01*
X98550469Y-110837889D01*
X98602448Y-110791199D01*
X98608489Y-110788505D01*
X98752863Y-110728703D01*
X98831110Y-110676419D01*
X98897786Y-110655542D01*
X98965167Y-110674026D01*
X98968872Y-110676407D01*
X99047137Y-110728703D01*
X99047138Y-110728703D01*
X99047139Y-110728704D01*
X99082201Y-110743227D01*
X99201918Y-110792816D01*
X99366228Y-110825499D01*
X99366232Y-110825500D01*
X99366233Y-110825500D01*
X99533768Y-110825500D01*
X99533769Y-110825499D01*
X99698082Y-110792816D01*
X99852863Y-110728703D01*
X99931110Y-110676419D01*
X99997786Y-110655542D01*
X100065167Y-110674026D01*
X100068872Y-110676407D01*
X100147137Y-110728703D01*
X100147138Y-110728703D01*
X100147139Y-110728704D01*
X100182201Y-110743227D01*
X100301918Y-110792816D01*
X100466228Y-110825499D01*
X100466232Y-110825500D01*
X100466233Y-110825500D01*
X100633768Y-110825500D01*
X100633769Y-110825499D01*
X100798082Y-110792816D01*
X100952863Y-110728703D01*
X101031110Y-110676419D01*
X101097786Y-110655542D01*
X101165167Y-110674026D01*
G37*
G04 #@! TD.AperFunction*
M02*
