M48
; DRILL file {KiCad 9.0.2} date 2025-12-01T11:38:41+0100
; FORMAT={-:-/ absolute / metric / decimal}
; #@! TF.CreationDate,2025-12-01T11:38:41+01:00
; #@! TF.GenerationSoftware,Kicad,Pcbnew,9.0.2
; #@! TF.FileFunction,Plated,1,4,PTH
FMAT,2
METRIC
; #@! TA.AperFunction,Plated,PTH,ViaDrill
T1C0.300
; #@! TA.AperFunction,Plated,PTH,ComponentDrill
T2C0.300
; #@! TA.AperFunction,Plated,PTH,ViaDrill
T3C0.400
; #@! TA.AperFunction,Plated,PTH,ComponentDrill
T4C0.500
; #@! TA.AperFunction,Plated,PTH,ComponentDrill
T5C0.600
; #@! TA.AperFunction,Plated,PTH,ComponentDrill
T6C1.100
%
G90
G05
T1
X88.85Y-106.6
X89.3Y-93.9
X89.4Y-101.95
X89.45Y-97.85
X91.422Y-100.814
X91.8Y-102.95
X91.9Y-110.867
X92.5Y-96.05
X93.0Y-103.7
X93.2Y-97.8
X93.2Y-102.8
X93.4Y-94.6
X93.45Y-93.0
X93.5Y-98.8
X93.5Y-100.9
X93.5Y-104.5
X93.5Y-105.3
X93.7Y-102.0
X94.5Y-108.0
X95.4Y-93.0
X96.1Y-93.8
X96.1Y-100.8
X96.6Y-92.05
X96.925Y-90.55
X97.5Y-88.75
X98.17Y-91.42
X98.2Y-92.4
X98.2Y-97.1
X98.35Y-90.5
X98.65Y-88.6
X98.9Y-101.0
X99.2Y-104.4
X99.35Y-91.4
X99.35Y-92.38
X99.4Y-107.2
X99.6Y-105.2
X99.6Y-106.1
X99.9Y-88.8
X99.95Y-111.5
X100.05Y-104.45
X100.5Y-107.2
X101.1Y-89.5
X101.15Y-90.2
X101.2Y-97.3
X101.6Y-100.1
X102.1Y-106.0
X102.2Y-92.2
X102.25Y-93.075
X102.3Y-89.425
X102.3Y-90.95
X103.35Y-88.5
X103.55Y-104.9
X104.1Y-96.325
X105.25Y-105.7
X105.3Y-104.5
X105.75Y-102.6
X106.1Y-89.425
X107.15Y-99.7
X107.15Y-100.3
X108.45Y-99.45
X108.55Y-88.5
X108.75Y-97.4
X108.95Y-107.188
X109.15Y-90.95
X109.15Y-94.4
X109.4Y-98.95
X109.95Y-94.4
X110.1Y-93.1
X110.55Y-100.95
X110.55Y-101.65
X111.45Y-93.45
X111.5Y-94.75
X111.7Y-99.05
T2
X103.3Y-92.2
X103.3Y-93.6
X103.3Y-95.0
X104.7Y-92.2
X104.7Y-93.6
X104.7Y-95.0
X106.1Y-92.2
X106.1Y-93.6
X106.1Y-95.0
T3
X91.1Y-109.15
X93.7Y-109.0
X106.144Y-110.362
X107.875Y-107.15
X108.0Y-105.5
X108.25Y-109.6
X110.2Y-97.55
X111.317Y-97.7
X111.537Y-108.237
X111.55Y-103.4
X111.55Y-104.4
T4
X96.15Y-108.625
X96.15Y-109.975
X97.25Y-108.625
X97.25Y-109.975
X98.35Y-108.625
X98.35Y-109.975
X99.45Y-108.625
X99.45Y-109.975
X100.55Y-108.625
X100.55Y-109.975
X101.65Y-108.625
X101.65Y-109.975
X102.75Y-108.625
X102.75Y-109.975
X103.85Y-108.625
X103.85Y-109.975
T6
X89.5Y-110.5
X110.5Y-89.5
X110.5Y-110.5
T5
X97.15Y-107.15G85X97.85Y-107.15
G05
X97.15Y-111.45G85X97.85Y-111.45
G05
X102.15Y-107.15G85X102.85Y-107.15
G05
X102.15Y-111.45G85X102.85Y-111.45
G05
M30
